<?xml version="1.0" standalone="no"?>
<!DOCTYPE svg PUBLIC "-//W3C//DTD SVG 1.1//EN" "http://www.w3.org/Graphics/SVG/1.1/DTD/svg11.dtd" >
<!--
2013-9-30: Created.
-->
<svg>
<metadata>
Created by iconfont
</metadata>
<defs>

<font id="IconFont" horiz-adv-x="1024" >
  <font-face
    font-family="IconFont"
    font-weight="500"
    font-stretch="normal"
    units-per-em="1024"
    ascent="896"
    descent="-128"
  />
    <missing-glyph />
    
    <glyph glyph-name="x" unicode="x" horiz-adv-x="1001"
d="M281 543q-27 -1 -53 -1h-83q-18 0 -36.5 -6t-32.5 -18.5t-23 -32t-9 -45.5v-76h912v41q0 16 -0.5 30t-0.5 18q0 13 -5 29t-17 29.5t-31.5 22.5t-49.5 9h-133v-97h-438v97zM955 310v-52q0 -23 0.5 -52t0.5 -58t-10.5 -47.5t-26 -30t-33 -16t-31.5 -4.5q-14 -1 -29.5 -0.5
t-29.5 0.5h-32l-45 128h-439l-44 -128h-29h-34q-20 0 -45 1q-25 0 -41 9.5t-25.5 23t-13.5 29.5t-4 30v167h911zM163 247q-12 0 -21 -8.5t-9 -21.5t9 -21.5t21 -8.5q13 0 22 8.5t9 21.5t-9 21.5t-22 8.5zM316 123q-8 -26 -14 -48q-5 -19 -10.5 -37t-7.5 -25t-3 -15t1 -14.5
t9.5 -10.5t21.5 -4h37h67h81h80h64h36q23 0 34 12t2 38q-5 13 -9.5 30.5t-9.5 34.5q-5 19 -11 39h-368zM336 498v228q0 11 2.5 23t10 21.5t20.5 15.5t34 6h188q31 0 51.5 -14.5t20.5 -52.5v-227h-327z" />
    

    
    <glyph glyph-name="icondocsfill" unicode="&#58898;" d="M831.985802 854.358601 256.009721 854.358601c-39.714514 0-72.795956-27.258831-82.314751-63.99757l45.565778 0c7.390317 12.697183 20.99415 21.332864 36.747949 21.332864l575.97608 0c23.563672 0 42.664705-19.101033 42.664705-42.664705l0-725.303061c0-23.563672-19.101033-42.664705-42.664705-42.664705l0-42.664705c47.125297 0 85.329411 38.204114 85.329411 85.329411L917.314189 769.028167C917.316236 816.154487 879.112122 854.358601 831.985802 854.358601zM725.323527 769.028167 192.013175 769.028167c-47.125297 0-85.329411-38.204114-85.329411-85.329411l0-682.638355c0-47.125297 38.204114-85.329411 85.329411-85.329411L725.323527-84.26901c47.125297 0 85.329411 38.204114 85.329411 85.329411L810.652937 683.698756C810.653961 730.824053 772.449847 769.028167 725.323527 769.028167zM426.669566 470.374206 256.009721 470.374206c-11.780301 0-21.332864 9.55154-21.332864 21.332864s9.55154 21.332864 21.332864 21.332864l170.659845 0c11.780301 0 21.332864-9.55154 21.332864-21.332864S438.45089 470.374206 426.669566 470.374206zM490.667136 598.369346 256.009721 598.369346c-11.780301 0-21.332864 9.55154-21.332864 21.332864s9.55154 21.332864 21.332864 21.332864l234.656391 0c11.780301 0 21.332864-9.55154 21.332864-21.332864S502.447437 598.369346 490.667136 598.369346z"  horiz-adv-x="1024" />

    
    <glyph glyph-name="icondocs" unicode="&#58899;" d="M490.667136 639.001765 256.009721 639.001765c-11.780301 0-21.332864-9.550517-21.332864-21.332864 0-11.782348 9.55154-21.332864 21.332864-21.332864l234.656391 0c11.780301 0 21.332864 9.550517 21.332864 21.332864C511.998977 629.451248 502.447437 639.001765 490.667136 639.001765zM725.323527 766.996904 192.013175 766.996904c-47.125297 0-85.329411-38.204114-85.329411-85.329411L106.683764-0.971885c0-47.125297 38.204114-85.329411 85.329411-85.329411L725.323527-86.301296c47.125297 0 85.329411 38.204114 85.329411 85.329411L810.652937 681.66647C810.653961 728.79279 772.449847 766.996904 725.323527 766.996904zM767.988232-0.971885c0-23.563672-19.101033-42.664705-42.664705-42.664705L192.013175-43.63659c-23.563672 0-42.664705 19.101033-42.664705 42.664705L149.34847 681.66647c0 23.563672 19.101033 42.664705 42.664705 42.664705L725.323527 724.331175c23.563672 0 42.664705-19.101033 42.664705-42.664705L767.988232-0.971885zM831.985802 852.326315 256.009721 852.326315c-39.714514 0-72.795956-27.257807-82.314751-63.99757l45.565778 0c7.390317 12.698207 20.99415 21.332864 36.747949 21.332864l575.97608 0c23.563672 0 42.664705-19.101033 42.664705-42.664705l0-725.303061c0-23.563672-19.101033-42.664705-42.664705-42.664705l0-42.664705c47.125297 0 85.329411 38.204114 85.329411 85.329411L917.314189 766.996904C917.316236 814.122201 879.112122 852.326315 831.985802 852.326315zM426.669566 511.007649 256.009721 511.007649c-11.780301 0-21.332864-9.550517-21.332864-21.332864 0-11.782348 9.55154-21.332864 21.332864-21.332864l170.659845 0c11.780301 0 21.332864 9.550517 21.332864 21.332864C448.00243 501.457132 438.45089 511.007649 426.669566 511.007649z"  horiz-adv-x="1024" />

    
    <glyph glyph-name="icontrendsfill" unicode="&#58900;" d="M512 853.335295C252.80268 853.335295 42.686195 643.21881 42.686195 384.021489c0-259.195274 210.116485-469.313805 469.313805-469.313805S981.313805 124.826216 981.313805 384.021489C981.313805 643.21881 771.19732 853.335295 512 853.335295zM575.460334 316.141496 288.85785 150.213419l165.928077 286.602484 301.688063 181.013657L575.460334 316.141496zM545.295314 346.309586c16.655332 16.660448 16.660448 43.675732 0 60.33618-16.665565 16.660448-43.675732 16.660448-60.338227 0-16.663518-16.660448-16.663518-43.675732 0-60.33618C501.617535 329.649138 528.629749 329.649138 545.295314 346.309586z"  horiz-adv-x="1024" />

    
    <glyph glyph-name="icontrends" unicode="&#58901;" d="M288.856827 150.215466 575.460334 316.142519 756.472967 617.830583 454.784904 436.818973 288.856827 150.215466zM484.956064 406.645766c16.663518 16.663518 43.672662 16.663518 60.338227 0 16.660448-16.658402 16.655332-43.672662 0-60.33311-16.665565-16.663518-43.677778-16.663518-60.338227 0C468.292546 362.970034 468.292546 389.987365 484.956064 406.645766zM511.998977 853.336318c-259.19732 0-469.313805-210.117508-469.313805-469.313805 0-259.195274 210.116485-469.313805 469.313805-469.313805s469.313805 210.118532 469.313805 469.313805C981.312782 643.21881 771.196297 853.336318 511.998977 853.336318zM511.998977-42.625564c-235.630578 0-426.6491 191.018521-426.6491 426.6491 0 235.631602 191.018521 426.6491 426.6491 426.6491s426.6491-191.016475 426.6491-426.6491C938.648077 148.391934 747.629555-42.625564 511.998977-42.625564z"  horiz-adv-x="1024" />

    
    <glyph glyph-name="iconstatistics" unicode="&#58903;" d="M554.410925 791.513274 554.410925 344.608851 107.507526 344.608851c11.186783-225.65232 197.139939-405.316236 425.570535-405.316236 235.630578 0 426.6491 191.016475 426.6491 426.6491C959.727161 594.370265 780.063245 780.326491 554.410925 791.513274zM533.079084-18.042679c-189.417047 0-347.644745 137.308249-378.135176 319.986825l399.468041 0 42.664705 0L597.076654 344.608851 597.076654 744.077915c182.679599-30.489408 319.986825-188.719152 319.986825-378.1362C917.062456 154.211477 744.807277-18.042679 533.079084-18.042679zM490.921939 834.587302c-235.633648 0-426.6491-191.016475-426.6491-426.6491l426.6491 0L490.921939 834.587302zM448.257234 450.602907 109.292172 450.602907c19.738553 177.707354 161.256684 319.226508 338.965062 338.964038L448.257234 450.602907z"  horiz-adv-x="1024" />

    
    <glyph glyph-name="iconfoot" unicode="&#58911;" d="M565.331649 832.797539c11.762905 0 21.332864-9.56996 21.332864-21.332864s-9.56996-21.332864-21.332864-21.332864-21.332864 9.56996-21.332864 21.332864S553.568744 832.797539 565.331649 832.797539M405.338748 811.465698c17.644869 0 31.998785-14.354939 31.998785-31.998785s-14.353916-31.998785-31.998785-31.998785-31.998785 14.354939-31.998785 31.998785S387.692856 811.465698 405.338748 811.465698M703.992709 768.800993c5.882987 0 10.665921-4.78498 10.665921-10.665921s-4.783956-10.665921-10.665921-10.665921-10.665921 4.78498-10.665921 10.665921S698.109722 768.800993 703.992709 768.800993M256.010745 726.135264c29.407774 0 53.330626-23.924899 53.330626-53.330626s-23.923876-53.330626-53.330626-53.330626-53.330626 23.924899-53.330626 53.330626S226.603994 726.135264 256.010745 726.135264M810.654984 683.470559c5.882987 0 10.665921-4.78498 10.665921-10.665921s-4.783956-10.665921-10.665921-10.665921-10.665921 4.78498-10.665921 10.665921S804.771997 683.470559 810.654984 683.470559M565.173037 662.140765c133.676535 0 213.483162-96.609315 213.483162-258.428817 0-174.532035-133.676535-466.87322-213.483162-466.87322-24.628934 0-83.33294 9.971096-96.500844 102.323457-6.375198 44.699038 12.213159 75.426877 33.733289 111.00621 20.803815 34.394345 44.38386 73.377194 35.358299 122.314767-10.350742 56.124252-44.76146 88.644923-75.121931 117.336382-28.556383 26.986631-53.216016 50.293453-64.210417 93.821829-10.015098 39.658232-0.529049 81.95864 26.027793 116.055203C455.82049 639.963673 505.794671 662.140765 565.173037 662.140765M565.331649 875.463268c-35.344996 0-63.99757-28.65155-63.99757-63.99757 0-35.344996 28.652574-63.99757 63.99757-63.99757 35.344996 0 63.99757 28.652574 63.99757 63.99757C629.329219 846.811718 600.676645 875.463268 565.331649 875.463268L565.331649 875.463268zM405.338748 854.130404c-41.235147 0-74.66349-33.428344-74.66349-74.66349s33.428344-74.66349 74.66349-74.66349 74.66349 33.428344 74.66349 74.66349S446.573895 854.130404 405.338748 854.130404L405.338748 854.130404zM703.992709 811.465698c-29.454846 0-53.330626-23.876804-53.330626-53.330626 0-29.452799 23.876804-53.330626 53.330626-53.330626 29.454846 0 53.330626 23.877827 53.330626 53.330626C757.323335 787.588895 733.446531 811.465698 703.992709 811.465698L703.992709 811.465698zM256.010745 768.800993c-53.018517 0-95.996354-42.97886-95.996354-95.996354s42.977837-95.996354 95.996354-95.996354c53.016471 0 95.996354 42.97886 95.996354 95.996354S309.027216 768.800993 256.010745 768.800993L256.010745 768.800993zM810.654984 726.135264c-29.454846 0-53.330626-23.876804-53.330626-53.330626 0-29.452799 23.876804-53.330626 53.330626-53.330626 29.454846 0 53.331649 23.877827 53.331649 53.330626C863.98561 702.259484 840.108806 726.135264 810.654984 726.135264L810.654984 726.135264zM565.173037 704.80547c-152.883993 0-235.31847-123.868145-208.108758-231.613078 27.212782-107.739816 122.585943-120.850415 138.741901-208.448496 13.366426-72.488964-85.014232-121.902374-69.371974-231.605915 15.642259-109.710704 87.640036-138.966005 138.738831-138.966005 127.708614 0 256.147868 347.415524 256.147868 509.538949C821.320904 594.611765 718.060099 704.80547 565.173037 704.80547L565.173037 704.80547z"  horiz-adv-x="1024" />

    
    <glyph glyph-name="iconcompany" unicode="&#58916;" d="M998.312968 399.037485 511.998977 842.690864 25.686009 399.037485c-8.329712-8.328689-8.329712-21.831214 0-30.166043 8.331759-8.328689 21.838378-8.328689 30.16809 0L512 785.003 968.145901 368.871441c8.329712-8.328689 21.835308-8.328689 30.16809 0C1006.64268 377.20627 1006.64268 390.709819 998.312968 399.037485zM842.622046 181.317835c-11.781324 0-21.330818-9.549493-21.330818-21.330818l0-191.973266L522.665921-31.986249l0 277.295514L714.64021 245.309264c11.781324 0 21.330818 9.549493 21.330818 21.330818s-9.549493 21.330818-21.330818 21.330818L522.665921 287.9709 522.665921 522.603755c0 11.781324-9.549493 21.330818-21.330818 21.330818-11.781324 0-21.330818-9.549493-21.330818-21.330818l0-554.591027L224.040612-31.987273 224.040612 309.299671c0 11.781324-9.549493 21.330818-21.330818 21.330818s-21.330818-9.549493-21.330818-21.330818l0-383.947556 682.572864 0L863.951841 159.987017C863.952864 171.768341 854.403371 181.317835 842.622046 181.317835z"  horiz-adv-x="1024" />

    
    <glyph glyph-name="iconfriends" unicode="&#58942;" d="M512.001023 895.998977c-282.758945 0-511.977487-229.219565-511.977487-511.977487 0-282.755876 229.219565-511.977487 511.977487-511.977487 282.753829 0 511.977487 229.221612 511.977487 511.977487C1023.978511 666.780435 794.753829 895.998977 512.001023 895.998977zM766.714216 160.036136l-253.988692-0.00307-255.431553 0.00307c0 0-9.775644 35.547611 25.759687 68.533886 35.530215 32.988322 164.040077 73.41301 171.617659 125.443014 0 12.879332-26.931373 30.967292-43.623543 57.424874-16.687054 26.459628-14.428617 56.679907-14.428617 56.679907s0 31.272237 0 68.460208c0 111.703081 116.107391 114.101711 116.107391 114.101711s113.727181-5.622044 113.727181-117.326149c0-37.19104 0-63.99757 0-63.99757s4.000104-31.459502-12.600993-57.919131c-16.598027-26.457582-43.389206-44.544519-43.389206-57.424874 7.538697-52.02898 135.291312-92.454692 170.633239-125.443014C776.431531 195.583746 766.714216 160.036136 766.714216 160.036136z"  horiz-adv-x="1024" />

    
    <glyph glyph-name="icongroupfriendsfill" unicode="&#58943;" d="M511.999488 895.998977c-282.755876 0-511.978511-229.219565-511.978511-511.978511 0-282.755876 229.221612-511.978511 511.978511-511.978511s511.978511 229.221612 511.978511 511.978511C1023.977999 666.779412 794.756387 895.998977 511.999488 895.998977zM292.222993 200.211137l-70.408583 0.005117c0 0-8.106632 30.743188 21.3871 59.273988 29.493731 28.532847 136.181589 63.500243 142.470829 108.495016 0 11.145851-22.358217 26.782993-36.20969 49.67026-13.858636 22.884197-11.983939 49.02353-11.983939 49.02353s0 27.042913 0 59.210543c0 96.620571 96.391351 98.688673 96.391351 98.688673s16.144702-0.458441 35.146475-7.520277c-22.582321-14.861476-42.315758-41.159422-42.315758-88.068801 0-36.582173 0-75.085092 0-75.085092s-5.947456-26.983561 10.143011-53.013401c16.08228-26.02984 42.037419-43.821041 42.037419-56.497759-7.299243-51.185776-131.153062-80.228229-165.402097-112.687502C302.180785 221.001649 295.923268 210.121857 292.222993 200.211137zM823.363935 155.20306l-244.015549-0.005117-245.403153 0.005117c0 0-9.384741 34.024931 24.746614 65.60109 34.139541 31.568996 157.602458 70.267367 164.883281 120.070656 0 12.3247-25.874297 29.642111-41.909505 54.963823-16.030092 25.331945-13.863752 54.252625-13.863752 54.252625s0 29.9358 0 65.531506c0 106.925265 111.547539 109.216447 111.547539 109.216447s110.942765-2.291183 110.942765-109.216447c0-35.594683 0-65.531506 0-65.531506s2.161223-28.92068-13.785981-54.252625c-15.947204-25.321712-41.683355-42.639123-41.683355-54.963823 7.241938-49.802266 129.97626-88.50166 163.922397-120.070656C832.697511 189.226968 823.363935 155.20306 823.363935 155.20306z"  horiz-adv-x="1024" />

    
    <glyph glyph-name="iconhelpfill" unicode="&#58944;" d="M511.998977 853.235011c-259.196297 0-469.313805-210.116485-469.313805-469.313805 0-259.192204 210.117508-469.313805 469.313805-469.313805 259.195274 0 469.314829 210.121602 469.314829 469.313805C981.313805 643.118526 771.193227 853.235011 511.998977 853.235011zM511.998977 106.599086c-23.563672 0-42.664705 19.10308-42.664705 42.664705 0 23.566742 19.101033 42.664705 42.664705 42.664705 23.562649 0 42.664705-19.097964 42.664705-42.664705C554.663682 125.702166 535.561625 106.599086 511.998977 106.599086zM587.451436 340.985324c-28.881794-30.191626-48.403406-58.008158-52.798507-106.391099l-42.932812 0c8.374738 109.172445 63.702857 128.653125 83.669608 149.32698 19.965727 20.675902 43.271526 50.260707 43.271526 85.329411 0 58.908668-47.755654 106.662275-106.662275 106.662275-58.907645 0-106.662275-47.753607-106.662275-106.662275 0-11.780301-9.550517-21.332864-21.332864-21.332864-11.782348 0-21.332864 9.55154-21.332864 21.332864 0 82.473363 66.855664 149.32698 149.32698 149.32698 82.470293 0 149.32698-66.853617 149.32698-149.32698C661.325957 414.42494 616.33323 371.182067 587.451436 340.985324z"  horiz-adv-x="1024" />

    
    <glyph glyph-name="iconphonefriendsfill" unicode="&#58947;" d="M373.338429 622.839667l277.321096 0 0-426.648077-277.321096 0 0 426.648077ZM511.998465 895.998977c-282.755876 0-511.977487-229.219565-511.977487-511.977487 0-282.755876 229.221612-511.977487 511.977487-511.977487 282.758945 0 511.977487 229.221612 511.977487 511.977487C1023.976976 666.780435 794.75741 895.998977 511.998465 895.998977zM693.32423 153.525861c0-35.344996-28.649504-63.99757-63.99757-63.99757L394.67027 89.528292c-35.344996 0-63.99757 28.652574-63.99757 63.99757L330.6727 622.839667c0 35.347043 28.652574 63.99757 63.99757 63.99757l234.656391 0c35.347043 0 63.99757-28.649504 63.99757-63.99757L693.32423 153.525861zM511.998465 142.859941m-31.998785 0a31.27 31.27 0 1 0 63.99757 0 31.27 31.27 0 1 0-63.99757 0Z"  horiz-adv-x="1024" />

    
    <glyph glyph-name="iconservicewindowfill" unicode="&#58950;" d="M512 895.998977c-282.757922 0-511.978511-229.219565-511.978511-511.978511 0-282.755876 229.220588-511.978511 511.978511-511.978511 282.755876 0 511.978511 229.221612 511.978511 511.978511C1023.977487 666.779412 794.755876 895.998977 512 895.998977zM490.667136 245.36043c0-64.798818-52.529377-117.328195-117.328195-117.328195s-117.328195 52.529377-117.328195 117.328195 52.529377 117.328195 117.328195 117.328195l117.328195 0L490.667136 245.36043zM490.667136 405.35333 373.33894 405.35333c-64.799842 0-117.328195 52.529377-117.328195 117.328195s52.529377 117.328195 117.328195 117.328195 117.328195-52.529377 117.328195-117.328195L490.667136 405.35333zM650.660036 128.032234c-64.798818 0-117.328195 52.529377-117.328195 117.328195L533.331841 362.688625l117.328195 0c64.799842 0 117.328195-52.529377 117.328195-117.328195S715.459878 128.032234 650.660036 128.032234zM650.660036 405.35333 533.331841 405.35333 533.331841 522.681526c0 64.799842 52.529377 117.328195 117.328195 117.328195s117.328195-52.529377 117.328195-117.328195S715.459878 405.35333 650.660036 405.35333zM650.660036 597.345016c-41.23617 0-74.66349-33.425274-74.66349-74.66349l0-74.66349 74.66349 0c41.235147 0 74.66349 33.428344 74.66349 74.66349C725.323527 563.919742 691.895183 597.345016 650.660036 597.345016z"  horiz-adv-x="1024" />

    
    <glyph glyph-name="iconunicom" unicode="&#58956;" d="M370.511545 432.52825l-62.384839 60.7322-48.580438-48.510854c0 0-17.476023 17.433044-32.533974 32.326243-51.548026 51.489698-136.223544 51.489698-187.94758 0-26.26827-25.778106-39.040155-60.162218-39.040155-94.065376 0-33.574676 12.771885-67.520813 39.040155-93.452415 51.724035-51.752688 136.399553-51.752688 187.94758 0 15.057951 14.71719 32.533974 32.282241 32.533974 32.282241l48.580438-48.773843 62.384839 61.454654-49.129954 48.489364L370.511545 432.52825zM165.638481 351.142661c-18.025539-18.090007-47.217395-18.090007-65.110927 0-8.682753 8.826016-13.122879 20.411889-13.122879 31.866778 0 12.001335 4.440126 23.675212 13.122879 32.435737 17.893532 18.046005 47.085388 18.046005 65.110927 0 14.376429-14.236236 32.335453-32.435737 32.335453-32.435737S180.013887 365.641887 165.638481 351.142661zM984.956775 477.074815c-51.812039 51.489698-136.355551 51.489698-188.16759 0-14.705933-14.893198-32.511461-32.326243-32.511461-32.326243l-48.844451 48.510854-61.72583-60.7322 48.865941-49.517787-48.865941-48.489364 61.72583-61.454654 48.844451 48.773843c0 0 17.805528-17.565051 32.511461-32.282241 51.812039-51.752688 136.355551-51.752688 188.16759 0 26.02677 25.930579 39.018665 59.877739 39.018665 93.452415C1023.975441 416.912597 1010.983545 451.296709 984.956775 477.074815zM923.186943 351.142661c-17.805528-18.090007-46.755884-18.090007-64.73742 0-14.617929 14.498202-32.379455 31.866778-32.379455 31.866778s17.761526 18.199501 32.379455 32.435737c17.981537 18.046005 46.931892 18.046005 64.73742 0 9.100262-8.760524 13.386892-20.434401 13.386892-32.435737C936.573835 371.55455 932.288229 359.969701 923.186943 351.142661zM574.2426 383.00944c0 0 144.576793 144.284127 158.777213 158.564365 52.009538 51.774177 52.009538 135.611607 0 187.890274-51.833529 51.357691-135.959531 51.357691-188.321086 0-20.158109-20.915355-32.116465-32.654724-32.116465-32.654724s-11.82635 11.739369-32.313963 32.654724c-52.185546 51.357691-136.245034 51.357691-188.386578 0-51.833529-52.277644-51.833529-136.116097 0-187.890274 14.485923-14.279215 159.173233-158.564365 159.173233-158.564365S306.367643 239.469256 291.88172 224.883049c-51.833529-51.79669-51.833529-135.765103 0-187.758268 52.141544-51.467185 136.201032-51.467185 188.386578 0 20.487613 20.805862 32.313963 32.829709 32.313963 32.829709s11.958356-12.023848 32.116465-32.829709c52.361555-51.467185 136.487557-51.467185 188.321086 0 52.009538 51.993165 52.009538 135.962601 0 187.758268C718.819392 239.469256 574.2426 383.00944 574.2426 383.00944zM353.673042 603.11544c-17.740036 18.11252-17.740036 46.693462 0 64.542992 17.828041 17.477047 47.085388 17.477047 64.759933 0 17.256012-17.170055 32.620955-32.347732 32.620955-32.347732l-49.129954-48.686862 61.572334-61.652152 49.085952 48.948829 49.108464-48.948829 61.48433 61.652152-48.932456 48.686862c0 0 15.233959 15.177678 32.577976 32.347732 17.871019 17.477047 46.88789 17.477047 64.693418 0 17.871019-17.84953 17.871019-46.430472 0-64.542992-18.751063-18.681478-159.326728-159.221328-159.326728-159.221328S371.941104 584.433962 353.673042 603.11544zM671.51297 98.732931c-17.805528-17.498536-46.822398-17.498536-64.693418 0-17.344017 17.279548-32.577976 32.347732-32.577976 32.347732l48.932456 48.883337-61.48433 61.476143-49.108464-48.904827-49.085952 48.904827-61.572334-61.476143 49.129954-48.883337c0 0-15.365966-15.068184-32.620955-32.347732-17.673521-17.498536-46.931892-17.498536-64.759933 0-17.740036 17.761526-17.740036 47.218418 0 64.673975 18.267039 18.813484 158.5132 159.089321 158.5132 159.089321S652.762931 182.220391 671.51297 163.406906C689.385013 145.951349 689.385013 116.494457 671.51297 98.732931z"  horiz-adv-x="1024" />

    
    <glyph glyph-name="iconlocation" unicode="&#58958;" d="M512.023536 399.751752c94.255711 0 170.661891 76.410274 170.661891 170.669054 0 94.256734-76.406181 170.662915-170.661891 170.662915-94.260827 0-170.667008-76.406181-170.667008-170.662915C341.356528 476.162026 417.762709 399.751752 512.023536 399.751752zM512.023536 698.416969c70.575382 0 127.995139-57.417711 127.995139-127.996163 0-70.580498-57.419757-128.002302-127.995139-128.002302-70.580498 0-128.000256 57.421804-128.000256 128.002302C384.02328 640.999259 441.443038 698.416969 512.023536 698.416969zM476.148467 37.54843l35.875069-55.721069 35.875069 55.721069 233.57271 362.807073c33.187867 51.751664 50.705845 111.3746 50.705845 172.489516 0 176.503946-143.620002 320.100412-320.153624 320.100412-176.536692 0-320.16181-143.596466-320.16181-320.100412 0-61.10366 17.515932-120.725572 50.653657-172.418908L476.148467 37.54843zM512.023536 850.278679c153.250336 0 277.486872-124.217093 277.486872-277.43366 0-55.06513-16.241916-106.241696-43.914162-149.393495L512.023536 60.645474 278.434453 423.452547c-27.66099 43.150776-43.905976 94.328365-43.905976 149.393495C234.528478 726.061586 358.762967 850.278679 512.023536 850.278679zM710.668759 188.412416l-26.104541-35.010375c88.60399-22.763446 147.453307-62.437028 147.453307-107.686604 0-70.691015-143.265938-128.000256-320.000128-128.000256-176.729074 0-320.000128 57.308217-320.000128 128.000256 0 46.399773 61.932538 86.910419 154.327878 109.35664l-24.452925 35.776831c-103.406115-30.064736-172.541705-83.73203-172.541705-145.134495 0-94.256734 162.375158-170.667008 362.66688-170.667008 200.296839 0 362.66688 76.410274 362.66688 170.667008C874.684276 105.437633 809.388131 157.915845 710.668759 188.412416z"  horiz-adv-x="1024" />

    
    <glyph glyph-name="iconpersonclockfill" unicode="&#58964;" d="M520.18031 112.926188c0 97.694019 54.570873 185.492668 142.410454 229.136677l3.551896 1.760087 2.676969 2.926656c14.374382 15.655562 32.248472 35.154661 46.550199 58.362222 32.571836 52.91414 28.644387 112.297622 28.519544 113.245204L743.889371 641.643941c0 167.222559-116.443036 226.802516-225.406726 226.802516-109.516276 0-226.532363-59.58098-226.532363-226.802516l0.052189-121.724319c-0.177032-2.51017-4.114714-61.914118 28.644387-114.849748 14.374382-23.217794 32.676214-43.070958 47.38317-59.018162 10.333346-11.208273 24.342408-26.39516 26.332738-32.477692-9.708106-48.977481-103.933117-98.912777-179.88802-139.160433-49.466622-26.218128-92.193749-48.852638-116.567879-71.903633-69.570495-65.830311-63.444984-137.931442-63.143109-140.973732l1.864464-19.269879 545.113165-0.010233-21.051455 32.841989C534.190395 16.450926 520.18031 64.115506 520.18031 112.926188zM776.170588 326.245621c-117.814266 0-213.32455-95.506191-213.32455-213.32455 0-117.813243 95.510284-213.32455 213.32455-213.32455 117.815289 0 213.32455 95.511307 213.32455 213.32455C989.495138 230.739431 893.985878 326.245621 776.170588 326.245621zM797.279349 99.085972l-0.257873 0-86.603427-86.603427-30.16502 30.170137 74.361615 74.361615L754.614643 259.568013l42.664705 0L797.279349 99.085972z"  horiz-adv-x="1024" />

    
    <glyph glyph-name="iconpersonclock" unicode="&#58965;" d="M334.607824 641.640871c0 166.191066 128.578424 184.137811 183.867658 184.137811 54.93517 0 182.742021-17.946744 182.742021-184.137811l0.062422-124.775818c0.020466-0.478907 2.916423-48.508807-22.248723-89.381703-12.166087-19.760043-28.145014-37.185924-42.24822-52.560076-20.999266-22.905686-37.60241-40.998763-37.60241-62.028729l42.644239-0.416486c1.041726 5.957689 15.70775 21.936615 26.39516 33.602306 14.645558 15.957437 32.853245 35.800367 47.143717 59.028395 32.561603 52.91414 28.644387 112.297622 28.519544 113.245204L743.883231 641.640871c0 167.222559-116.432803 226.802516-225.406726 226.802516-109.516276 0-226.532363-59.58098-226.532363-226.802516l0.062422-121.724319c-0.187265-2.499937-4.145413-61.914118 28.623921-114.849748 14.394848-23.217794 32.686447-43.070958 47.393403-59.018162 10.333346-11.208273 24.332175-26.383904 26.332738-32.467459-9.708106-48.987714-103.933117-98.92301-179.88802-139.17169-49.456389-26.217105-92.183516-48.852638-116.557646-71.903633-69.580728-65.820078-63.434751-137.941676-63.143109-140.973732l1.874697-19.269879 481.833957-0.010233 0 42.664705-439.960267 0.010233c3.312442 20.394493 14.187117 53.914934 48.726771 86.579891 20.144806 19.062148 62.434981 41.47767 107.203604 65.206094 90.162486 47.77919 192.367239 101.933577 202.554252 173.159782l0.208754 3.0208c0 21.071921-16.687054 39.164998-37.811164 62.080917-14.187117 15.374152-30.248931 32.801057-42.47744 52.549843-25.291013 40.862663-22.395056 88.850607-22.311145 90.829681L334.609871 641.640871zM776.162402 326.247668c-117.813243 0-213.32455-95.509261-213.32455-213.32455s95.511307-213.32455 213.32455-213.32455c117.815289 0 213.32455 95.509261 213.32455 213.32455S893.977691 326.247668 776.162402 326.247668zM776.162402-57.736726c-94.251617 0-170.659845 76.407204-170.659845 170.659845s76.408227 170.659845 170.659845 170.659845c94.253664 0 170.659845-76.407204 170.659845-170.659845S870.416066-57.736726 776.162402-57.736726zM754.830561 109.520625 680.468946 35.157987 710.633966 4.988874 797.237393 91.591277 797.495266 91.591277 797.495266 252.073318 754.830561 252.073318Z"  horiz-adv-x="1024" />

    
    <glyph glyph-name="iconpersonwarmfill" unicode="&#58966;" d="M520.18031 112.927211c0 97.694019 54.570873 185.492668 142.410454 229.136677l3.551896 1.760087 2.676969 2.926656c14.374382 15.655562 32.248472 35.154661 46.550199 58.362222 32.571836 52.91414 28.644387 112.297622 28.519544 113.245204L743.889371 641.644965c0 167.222559-116.443036 226.802516-225.406726 226.802516-109.516276 0-226.532363-59.58098-226.532363-226.802516l0.052189-121.724319c-0.177032-2.51017-4.114714-61.914118 28.644387-114.849748 14.374382-23.217794 32.67519-43.070958 47.38317-59.018162 10.333346-11.208273 24.342408-26.39516 26.331715-32.477692-9.708106-48.977481-103.933117-98.912777-179.88802-139.160433-49.466622-26.218128-92.193749-48.852638-116.567879-71.903633-69.570495-65.830311-63.444984-137.931442-63.143109-140.973732l1.864464-19.269879 545.112142-0.010233-21.051455 32.841989C534.189372 16.45195 520.18031 64.116529 520.18031 112.927211zM776.170588 326.246645c-117.814266 0-213.32455-95.506191-213.32455-213.32455 0-117.813243 95.510284-213.32455 213.32455-213.32455 117.815289 0 213.32455 95.511307 213.32455 213.32455C989.495138 230.740454 893.985878 326.246645 776.170588 326.246645zM754.837724 217.365842l42.664705 0 0-127.994116-42.664705 0L754.837724 217.365842zM776.170588 8.483464c-14.971993 0-27.109428 12.135388-27.109428 27.108405s12.137435 27.113521 27.109428 27.113521c14.973016 0 27.110451-12.140505 27.110451-27.113521S791.143605 8.483464 776.170588 8.483464z"  horiz-adv-x="1024" />

    
    <glyph glyph-name="iconpersonwarm" unicode="&#58967;" d="M334.614987 641.632685c0 166.2013 128.578424 184.148044 183.856401 184.148044 54.955636 0 182.76351-17.946744 182.76351-184.148044l0.052189-124.765585c0.031722-0.478907 2.916423-48.508807-22.248723-89.381703-12.166087-19.748786-28.145014-37.175691-42.237987-52.549843-21.019733-22.915919-37.612643-41.008996-37.612643-62.049195l42.644239-0.416486c1.041726 5.968945 15.70775 21.957081 26.415626 33.634028 14.624069 15.947204 32.821523 35.790134 47.12325 59.007929 32.571836 52.903907 28.65462 112.297622 28.529777 113.245204L743.900627 641.632685c0 167.232792-116.453269 226.813772-225.428216 226.813772-109.506043 0-226.52213-59.58098-226.52213-226.813772l0.052189-121.714086c-0.177032-2.51017-4.114714-61.924351 28.644387-114.849748 14.374382-23.217794 32.676214-43.070958 47.38317-59.018162 10.333346-11.208273 24.342408-26.39516 26.331715-32.477692-9.697873-48.977481-103.922884-98.912777-179.867554-139.160433-49.476855-26.218128-92.215238-48.862871-116.578112-71.913866-69.570495-65.820078-63.455217-137.931442-63.153342-140.973732l1.864464-19.269879 481.84419 0 0 42.664705L78.521355-15.080208c3.312442 20.394493 14.187117 53.925167 48.706305 86.579891 20.166295 19.072381 62.455447 41.487903 107.24556 65.216327 90.152253 47.77919 192.34575 101.933577 202.52253 173.149549l0.218988 3.0208c0 21.071921-16.687054 39.175231-37.821397 62.09115-14.176884 15.374152-30.248931 32.801057-42.47744 52.549843-25.279756 40.85243-22.384823 88.850607-22.300912 90.829681L334.614987 641.632685zM776.170588 326.244598c-117.814266 0-213.32455-95.510284-213.32455-213.32455 0-117.815289 95.510284-213.32455 213.32455-213.32455 117.815289 0 213.32455 95.509261 213.32455 213.32455C989.495138 230.734314 893.985878 326.244598 776.170588 326.244598zM776.170588-57.738773c-94.252641 0-170.659845 76.405157-170.659845 170.659845 0 94.252641 76.407204 170.659845 170.659845 170.659845 94.253664 0 170.659845-76.407204 170.659845-170.659845C946.830433 18.666384 870.424252-57.738773 776.170588-57.738773zM754.837724 219.582323l42.664705 0 0-127.995139-42.664705 0 0 127.995139ZM776.170588 37.812443m-27.110451 0a26.493 26.493 0 1 0 54.220902 0 26.493 26.493 0 1 0-54.220902 0Z"  horiz-adv-x="1024" />

    
    <glyph glyph-name="iconplayfill" unicode="&#58969;" d="M917.316236 810.672636 106.679671 810.672636c-47.12325 0-85.326341-38.201044-85.326341-85.329411l0-682.643472c0-47.125297 38.20309-85.329411 85.326341-85.329411L917.316236-42.629657c47.125297 0 85.328387 38.204114 85.328387 85.329411L1002.644623 725.342202C1002.645646 772.470569 964.442556 810.672636 917.316236 810.672636zM684.992983 348.525044 429.003727 177.863153c-7.138584-4.76042-15.392572-7.166213-23.670096-7.166213-6.9022 0-13.820774 1.672082-20.129456 5.048993-13.872962 7.424086-22.533202 21.881356-22.533202 37.615713L362.670973 554.680311c0 15.733333 8.66024 30.191626 22.533202 37.615713 6.306636 3.377934 13.228279 5.048993 20.129456 5.048993 8.278547 0 16.529465-2.405793 23.668049-7.166213l255.989255-170.656775c11.869329-7.91118 18.999726-21.233604 18.999726-35.498492S696.862311 356.436224 684.992983 348.525044z"  horiz-adv-x="1024" />

    
    <glyph glyph-name="iconvideo" unicode="&#58976;" d="M618.662275 661.342586c23.524786 0 42.664705-19.139919 42.664705-42.664705l0-469.312782c0-23.524786-19.139919-42.664705-42.664705-42.664705L86.37523 106.700393c-23.524786 0-42.664705 19.139919-42.664705 42.664705L43.710524 618.67788c0 23.524786 19.139919 42.664705 42.664705 42.664705L618.662275 661.342586M980.289476 621.542114l0-437.112406-212.30329 140.66367L767.986185 463.429027 980.289476 621.542114M618.662275 704.007291 86.37523 704.007291c-47.125297 0-85.329411-38.204114-85.329411-85.329411l0-469.312782c0-47.125297 38.204114-85.329411 85.329411-85.329411l532.287045 0c47.12325 0 85.329411 38.204114 85.329411 85.329411L703.991686 618.67788C703.991686 665.803177 665.785525 704.007291 618.662275 704.007291L618.662275 704.007291zM1001.61927 682.67238c-11.090593 0-17.762549-5.379521-17.762549-5.379521L725.32148 484.913341l0-182.793186 258.533194-171.145915c0 0 6.668886-5.383614 17.764596-5.383614 11.786441 0 21.334911 9.590426 21.334911 21.419845 0 110.12719 0 313.88792 0 514.243087C1022.954181 673.086048 1013.405711 682.67238 1001.61927 682.67238L1001.61927 682.67238z"  horiz-adv-x="1024" />

    
    <glyph glyph-name="iconappfill" unicode="&#58977;" d="M871.914186 831.99936 146.58145 831.99936c-47.125297 0-85.333504-38.20309-85.333504-85.333504l0-725.332736c0-47.125297 38.208207-85.333504 85.333504-85.333504l725.332736 0c47.130414 0 85.333504 38.208207 85.333504 85.333504L957.24769 746.665857C957.24769 793.79627 919.0446 831.99936 871.914186 831.99936zM765.247818 533.33312c0-141.379984-114.614387-255.994372-255.999488-255.994372S253.247818 391.952112 253.247818 533.33312L253.247818 639.999488l42.666752 0 0-106.666368c0-117.817336 95.515401-213.32762 213.33376-213.32762 117.822452 0 213.33376 95.510284 213.33376 213.32762L722.582089 639.999488l42.666752 0L765.248841 533.33312z"  horiz-adv-x="1024" />

    
    <glyph glyph-name="iconapp" unicode="&#58978;" d="M874.650507 832.798563 149.347446 832.798563c-47.125297 0-85.329411-38.204114-85.329411-85.329411L64.018036 22.165068c0-47.125297 38.204114-85.329411 85.329411-85.329411l725.303061 0c47.125297 0 85.329411 38.204114 85.329411 85.329411L959.979918 747.468129C959.979918 794.594449 921.775804 832.798563 874.650507 832.798563zM917.315212 22.165068c0-23.563672-19.101033-42.664705-42.664705-42.664705L149.347446-20.499637c-23.563672 0-42.664705 19.101033-42.664705 42.664705L106.682741 747.468129c0 23.563672 19.101033 42.664705 42.664705 42.664705l725.303061 0c23.563672 0 42.664705-19.101033 42.664705-42.664705L917.315212 22.165068zM725.323527 534.144602c0-117.815289-95.507214-213.322503-213.32455-213.322503-117.815289 0-213.32455 95.507214-213.32455 213.322503L298.674427 640.803807l-42.664705 0 0-106.660228c0-141.376914 114.610294-255.987209 255.989255-255.987209 141.376914 0 255.989255 114.610294 255.989255 255.987209L767.988232 640.803807 725.323527 640.803807 725.323527 534.144602z"  horiz-adv-x="1024" />

    
    <glyph glyph-name="icongpsfill" unicode="&#58979;" d="M802.563629 777.48966c-160.710198 158.013787-421.279707 158.013787-581.991952 0-160.714292-158.026067-142.409395-376.45379 0-572.247009 142.411441-195.791173 267.720371-333.23651 290.997511-333.23651s146.223256 128.803519 290.993418 333.23651C947.343001 409.671548 963.277921 619.463593 802.563629 777.48966zM512.528026 341.213404c-94.25364 0-170.659802 76.406162-170.659802 170.659802s76.406162 170.659802 170.659802 170.659802 170.659802-76.406162 170.659802-170.659802S606.780643 341.213404 512.528026 341.213404z"  horiz-adv-x="1024" />

    
    <glyph glyph-name="iconscanfriendsfill" unicode="&#58948;" d="M511.999488 895.998977c-282.758945 0-511.978511-229.222635-511.978511-511.98158 0-282.756899 229.219565-511.978511 511.978511-511.978511 282.756899 0 511.978511 229.222635 511.978511 511.978511C1023.979022 666.776342 794.756387 895.998977 511.999488 895.998977zM746.656903 234.691439c0-47.12325-38.204114-85.329411-85.329411-85.329411L362.672508 149.362029c-47.125297 0-85.329411 38.207184-85.329411 85.329411l0 63.99757 42.664705 0 0-63.99757c0-23.561625 19.101033-42.664705 42.664705-42.664705l298.653961 0c23.563672 0 42.664705 19.10308 42.664705 42.664705l0 63.99757 42.664705 0L746.655879 234.691439zM746.656903 362.686578 277.343097 362.686578l0 42.664705 469.313805 0L746.656903 362.686578zM746.656903 448.015989l-42.664705 0 0 85.329411c0 23.566742-19.101033 42.664705-42.664705 42.664705L362.672508 576.010105c-23.563672 0-42.664705-19.097964-42.664705-42.664705l0-85.329411-42.664705 0 0 85.329411c0 47.128367 38.204114 85.329411 85.329411 85.329411l298.653961 0c47.125297 0 85.329411-38.201044 85.329411-85.329411L746.655879 448.015989z"  horiz-adv-x="1024" />

    
    <glyph glyph-name="iconsearchfriendsfill" unicode="&#58949;" d="M477.320481 429.31893m-170.666496 0a166.786 166.786 0 1 0 341.332992 0 166.786 166.786 0 1 0-341.332992 0ZM512 896c-282.770438 0-511.998465-229.231097-511.998465-512.001535 0-282.767368 229.229051-511.998465 511.998465-511.998465 282.767368 0 511.998465 229.231097 511.998465 511.998465C1023.998465 666.768903 794.767368 896 512 896zM751.179292 125.343345 612.333309 264.189328c-36.778238-30.109611-83.772767-48.203006-135.012828-48.203006-117.822977 0-213.332609 95.510655-213.332609 213.332609s95.510655 213.335678 213.332609 213.335678c117.819907 0 213.332609-95.512701 213.332609-213.335678 0-51.213456-18.078046-98.182403-48.155936-134.952455l138.849053-138.85417L751.179292 125.343345z"  horiz-adv-x="1024" />

    
    <glyph glyph-name="iconseelog" unicode="&#58981;" d="M638.325104 842.668351 190.344163 842.668351c-47.125297 0-85.329411-38.204114-85.329411-85.329411l0-746.635925c0-47.125297 38.204114-85.329411 85.329411-85.329411l319.986825 0c11.780301 0 21.332864 9.550517 21.332864 21.332864s-9.55154 21.332864-21.332864 21.332864L190.344163-31.960667c-23.563672 0-42.664705 19.101033-42.664705 42.664705L147.679457 757.33894c0 23.563672 19.101033 42.664705 42.664705 42.664705L595.660398 800.003646l0-213.32455c0-35.344996 28.649504-63.99757 63.99757-63.99757l213.32455 0 0-191.991686c0-11.782348 9.55154-21.332864 21.332864-21.332864s21.332864 9.550517 21.332864 21.332864L915.648246 558.675298 638.325104 842.668351zM659.657968 565.347255c-11.780301 0-21.332864 9.550517-21.332864 21.332864L638.325104 782.333194l216.98594-216.98594L659.657968 565.347255zM808.984948 224.027565c0 106.036012-85.957721 191.991686-191.991686 191.991686s-191.991686-85.955674-191.991686-191.991686c0-106.034988 85.957721-191.991686 191.991686-191.991686 45.326325 0 86.910419 15.801894 119.755478 42.070164L884.406708-73.552947l30.16809 30.169113L766.91376 104.274134C793.183054 137.117147 808.984948 178.700217 808.984948 224.027565zM616.993263 74.700585c-82.470293 0-149.32698 66.856687-149.32698 149.32698 0 82.47234 66.856687 149.32698 149.32698 149.32698s149.32698-66.855664 149.32698-149.32698C766.320243 141.557272 699.463556 74.700585 616.993263 74.700585z"  horiz-adv-x="1024" />

    
    <glyph glyph-name="iconwritelog" unicode="&#58983;" d="M418.463674 333.149868l105.58985 75.41869-30.170137 30.170137L418.463674 333.149868zM205.581192 56.27084l383.984395 0c11.780301 0 21.332864 9.55154 21.332864 21.332864s-9.55154 21.332864-21.332864 21.332864L205.581192 98.936569c-11.780301 0-21.332864-9.55154-21.332864-21.332864S193.800891 56.27084 205.581192 56.27084zM205.581192 184.26598l234.656391 0c11.780301 0 21.332864 9.55154 21.332864 21.332864s-9.55154 21.332864-21.332864 21.332864L205.581192 226.931708c-11.780301 0-21.332864-9.55154-21.332864-21.332864S193.800891 184.26598 205.581192 184.26598zM916.244834 861.099119l-30.170137-30.16809 30.170137-30.16809 30.16809 30.16809L916.244834 861.099119zM508.96692 453.822229l30.16809-30.16809L901.161301 785.677359 870.991164 815.848519 508.96692 453.822229zM866.886683 504.251781c-11.780301 0-21.332864-9.55154-21.332864-21.332864l0-490.64667c0-23.563672-19.101033-42.664705-42.664705-42.664705L162.916487-50.392458c-23.563672 0-42.664705 19.101033-42.664705 42.664705L120.251781 738.909196c0 23.563672 19.101033 42.664705 42.664705 42.664705l383.984395 0c11.780301 0 21.332864 9.55154 21.332864 21.332864s-9.55154 21.332864-21.332864 21.332864L162.916487 824.23963c-47.125297 0-85.329411-38.204114-85.329411-85.329411l0-746.635925c0-47.125297 38.204114-85.329411 85.329411-85.329411L802.890136-93.055117c47.125297 0 85.329411 38.204114 85.329411 85.329411L888.219547 482.91994C888.219547 494.700241 878.668007 504.251781 866.886683 504.251781z"  horiz-adv-x="1024" />

    
    <glyph glyph-name="iconcertification" unicode="&#58984;" d="M978.328821 442.33664 874.765117 545.89932 874.765117 661.020244c0 47.128367-38.201044 85.329411-85.329411 85.329411L674.315806 746.349655 570.111512 850.553948c-32.209586 32.209586-84.425831 32.209586-116.635417 0L349.271802 746.349655 234.792491 746.349655c-47.12325 0-85.329411-38.201044-85.329411-85.329411l0-114.479311L45.258787 442.33664c-32.206516-32.206516-32.206516-84.423785 0-116.630301l104.204293-104.204293 0-115.125017c0-47.12325 38.207184-85.329411 85.329411-85.329411l115.125017 0 103.558587-103.558587c32.209586-32.209586 84.425831-32.209586 116.635417 0l103.558587 103.558587 115.765607 0c47.128367 0 85.329411 38.207184 85.329411 85.329411L874.765117 222.142635l103.563704 103.563704C1010.535337 357.912855 1010.535337 410.1291 978.328821 442.33664zM433.95346 170.373575 234.792491 371.152391l52.721759 24.337291 140.582829-109.519346 320.340889 311.052339 40.998763-18.249643L433.95346 170.373575z"  horiz-adv-x="1024" />

    
    <glyph glyph-name="iconcomputerfill" unicode="&#58987;" d="M512 896c-282.754852 0-511.978511-229.222635-511.978511-511.98158 0-282.755876 229.223658-511.978511 511.978511-511.978511 282.762015 0 511.978511 229.222635 511.978511 511.978511C1023.978511 666.777365 794.762015 896 512 896zM767.992325 282.480862c0-26.52512-22.576181-48.028876-50.421366-48.028876l-184.236048 0 0-63.729463 149.150972 0 0-0.085958c0.146333 0.005117 0.267083 0.085958 0.414439 0.085958 11.698436 0 21.190625-9.556657 21.190625-21.345144 0-11.791557-9.492188-21.348214-21.190625-21.348214-0.147356 0-0.268106 0.082888-0.414439 0.082888l0-0.082888L341.517187 128.029164l0 0.082888c-0.146333-0.00307-0.26606-0.082888-0.411369-0.082888-11.70253 0-21.189601 9.556657-21.189601 21.348214 0 11.788487 9.487072 21.345144 21.189601 21.345144 0.145309 0 0.26606-0.080841 0.411369-0.082888l0 0.082888 148.764162 0 0 63.729463L306.437228 234.451986c-27.850301 0-50.423413 21.50478-50.423413 48.028876L256.013815 549.314093c0 26.52512 22.573111 48.028876 50.423413 48.028876l411.133731 0c27.845185 0 50.421366-21.50478 50.421366-48.028876L767.992325 282.480862zM703.994756 320.02085 320.010361 320.02085c-11.782348 0-21.332864-9.55154-21.332864-21.332864s9.550517-21.332864 21.332864-21.332864l383.984395 0c11.782348 0 21.332864 9.55154 21.332864 21.332864S715.77608 320.02085 703.994756 320.02085z"  horiz-adv-x="1024" />

    
    <glyph glyph-name="icondatafill" unicode="&#58988;" d="M512 896c-282.754852 0-511.978511-229.222635-511.978511-511.98158 0-282.756899 229.223658-511.978511 511.978511-511.978511 282.762015 0 511.978511 229.222635 511.978511 511.978511C1023.978511 666.777365 794.760992 896 512 896zM825.64949 411.064402c-21.023826-21.024849-51.407833-26.646893-77.688383-17.353227l-64.642253-64.640206c9.293667-26.27748 3.672646-56.661488-17.349133-77.68736-29.158087-29.155017-76.432787-29.155017-105.58985 0-21.026896 21.024849-26.646893 51.40681-17.352203 77.68736l-85.881996 85.881996c-16.101723-5.637394-33.753755-5.611811-49.875944 0.091074l-64.642253-64.638159c9.29469-26.28055 3.674693-56.664557-17.349133-77.689407-29.15911-29.155017-76.43381-29.155017-105.591897 0-29.15604 29.158087-29.15604 76.43381 0 105.588827 21.023826 21.024849 51.408857 26.646893 77.689407 17.353227l64.640206 64.640206c-9.29469 26.28055-3.674693 56.661488 17.349133 77.68736 29.158087 29.155017 76.432787 29.155017 105.58985 0 21.026896-21.024849 26.649963-51.408857 17.352203-77.689407l85.972047-85.97c16.123212 5.702885 33.776268 5.728468 49.879014 0.091074l64.548108 64.547085c-9.29469 26.28055-3.674693 56.664557 17.349133 77.689407 29.15911 29.155017 76.43381 29.155017 105.591897 0C854.80553 487.496166 854.80553 440.221466 825.64949 411.064402z"  horiz-adv-x="1024" />

    
    <glyph glyph-name="iconfoundfill" unicode="&#58990;" d="M512 896c-282.759969 0-511.978511-229.221612-511.978511-511.978511s229.218542-511.980557 511.978511-511.980557c282.755876 0 511.978511 229.224682 511.978511 511.980557S794.756899 896 512 896zM757.323335 373.356592c0-11.783371-9.550517-21.332864-21.332864-21.332864L543.998785 352.023728l0-191.991686c0-11.786441-9.550517-21.334911-21.332864-21.334911l-21.332864 0c-11.782348 0-21.334911 9.549493-21.334911 21.334911L479.998145 352.024751 288.00953 352.024751c-11.782348 0-21.332864 9.549493-21.332864 21.332864l0 21.329794c0 11.780301 9.550517 21.332864 21.332864 21.332864l191.989639 0L479.999169 608.010937c0 11.780301 9.552563 21.332864 21.334911 21.332864l21.332864 0c11.782348 0 21.332864-9.55154 21.332864-21.332864l0-191.991686 191.991686 0c11.782348 0 21.332864-9.55154 21.332864-21.332864L757.324358 373.356592z"  horiz-adv-x="1024" />

    
    <glyph glyph-name="iconphonepersonfill" unicode="&#58994;" d="M512 896c-282.757922 0-511.978511-229.219565-511.978511-511.978511 0-282.755876 229.220588-511.978511 511.978511-511.978511 282.758945 0 511.978511 229.222635 511.978511 511.978511C1023.978511 666.780435 794.758945 896 512 896zM745.619782 170.696939l-235.892545-0.005117-273.953396 0.005117c0 0-10.014074 37.09485 26.39823 71.51273 36.412304 34.426067 155.912979 76.605725 163.67885 130.895189 0 13.44522-27.601638 32.31601-44.705178 59.924811-15.70161 27.435862-12.362562 54.606689-12.362562 54.606689s0 34.331923 0 73.142857c0 116.562762 110.218264 121.896234 121.910561 121.896234 11.692297 0 121.912607-5.333472 121.912607-121.896234 0-38.810934 0-73.142857 0-73.142857s1.323135-35.129078-11.440563-54.606689c-17.009396-27.607778-44.462654-46.479591-44.462654-59.924811 7.724938-54.289464 126.453017-96.470145 162.667823-130.895189C755.582691 207.791789 745.619782 170.696939 745.619782 170.696939zM810.653961 256.027373l-42.664705 0c-11.780301 0-21.332864 9.55154-21.332864 21.332864s9.55154 21.332864 21.332864 21.332864l42.664705 0c11.780301 0 21.332864-9.55154 21.332864-21.332864S822.434262 256.027373 810.653961 256.027373zM810.653961 341.356784l-85.329411 0c-11.780301 0-21.332864 9.55154-21.332864 21.332864 0 11.780301 9.55154 21.332864 21.332864 21.332864l85.329411 0c11.780301 0 21.332864-9.55154 21.332864-21.332864C831.985802 350.908324 822.434262 341.356784 810.653961 341.356784zM810.653961 426.686195 682.658821 426.686195c-11.780301 0-21.332864 9.55154-21.332864 21.332864s9.55154 21.332864 21.332864 21.332864l127.994116 0c11.780301 0 21.332864-9.55154 21.332864-21.332864S822.434262 426.686195 810.653961 426.686195z"  horiz-adv-x="1024" />

    
    <glyph glyph-name="iconrecordfill" unicode="&#58995;" d="M512.000512 896c-282.758945 0-511.978511-229.222635-511.978511-511.978511s229.219565-511.98158 511.978511-511.98158c282.756899 0 511.978511 229.224682 511.978511 511.98158S794.756387 896 512.000512 896zM258.732228 448.334237c41.479717 37.332257 125.913734 113.322975 166.496012 149.842727 9.733689 8.828063 22.774703 15.134699 22.774703-1.062192l0-106.433054 298.653961 0c11.780301 0 21.332864-9.55154 21.332864-21.332864l0-42.664705L260.203742 426.684148C245.469156 426.684148 250.003426 440.635905 258.732228 448.334237zM760.004909 320.829262C718.907908 285.429007 635.24751 213.380064 595.040786 178.751383c-9.647731-8.369621-22.563902-14.3488-22.563902 1.010003l0 97.594759L277.343097 277.356145c-11.780301 0-21.332864 9.55154-21.332864 21.332864l0 42.664705 502.541581 0C773.1503 341.353714 768.655939 328.125435 760.004909 320.829262z"  horiz-adv-x="1024" />

    
    <glyph glyph-name="iconsafecenterfill" unicode="&#58996;" d="M512.002047 149.362029c12.014638 2.874467 25.926486 10.736529 40.055275 16.648169 14.101159 5.913687 28.040636 12.892635 41.789779 20.960381 13.775748 8.069793 27.009144 17.022699 39.748283 26.876114 12.744255 9.853415 23.983227 20.449751 33.816177 31.746028 9.806343 11.265578 17.621333 22.998807 23.462365 35.196617 5.869684 12.171204 8.777921 24.553209 8.777921 37.099966l4.340865 87.461981L512.002047 405.351284 512.002047 149.362029zM320.010361 576.011128l0-170.659845 191.991686 0-1.760087 195.84034L320.010361 576.011128zM512 896c-282.755876 0-511.978511-229.221612-511.978511-511.980557 0-282.755876 229.221612-511.978511 511.978511-511.978511 282.762015 0 511.978511 229.221612 511.978511 511.978511C1023.978511 666.778388 794.760992 896 512 896zM746.95622 323.245288c0-16.301268-3.916193-32.509415-11.731182-48.625464-7.835456-16.161075-18.066471-31.766494-30.741142-46.932915-12.668531-15.139815-27.14729-29.493731-43.409672-43.011606-16.285918-13.541411-32.779567-25.598005-49.510624-36.172851-16.751522-10.596336-33.013905-19.404955-48.807612-26.41051-15.790638-6.999414-29.633924-11.80179-41.534975-14.421454l-5.630231-0.974188-5.161556 0.974188c-12.202926 2.619664-26.353205 7.42204-42.469254 14.421454-16.124236 7.004531-32.855292 15.814174-50.216705 26.41051-17.366529 10.574846-34.402531 22.63144-51.154054 36.172851-16.731056 13.517875-31.67849 27.870768-44.820811 43.011606-13.137205 15.166421-23.76731 30.771841-31.886221 46.932915-8.165983 16.116049-12.228509 32.324196-12.228509 48.625464l-0.306992 274.097682 234.656391 63.99757 234.95315-66.317405L746.95622 323.245288z"  horiz-adv-x="1024" />

    
    <glyph glyph-name="iconsettingroundfill" unicode="&#58998;" d="M512.002047 512.013559c-70.689992 0-127.995139-57.305147-127.995139-127.994116s57.305147-127.994116 127.995139-127.994116c70.687946 0 127.994116 57.305147 127.994116 127.994116S582.691015 512.013559 512.002047 512.013559zM512 896c-282.754852 0-511.978511-229.222635-511.978511-511.98158 0-282.755876 229.223658-511.978511 511.978511-511.978511 282.762015 0 511.978511 229.222635 511.978511 511.978511C1023.978511 666.777365 794.760992 896 512 896zM788.429797 342.25013c0-11.783371-9.550517-21.332864-21.332864-21.332864l-29.27065 0c-4.963035-17.793248-12.033058-34.694173-20.804838-50.51858l20.61348-20.61348c8.330736-8.330736 8.330736-21.837354 0-30.16809l-60.33618-60.338227c-8.332782-8.327666-21.839401-8.327666-30.169113 0l-20.278859 20.277836c-15.872502-8.960069-32.966832-15.944134-50.851155-21.053502l0-28.686343c0-11.780301-9.55154-21.332864-21.332864-21.332864l-85.329411 0c-11.782348 0-21.332864 9.55154-21.332864 21.332864l0 28.608571c-17.902742 5.072529-34.904974 12.260232-50.795896 21.186532l-20.335141-20.332071c-8.330736-8.327666-21.836331-8.327666-30.16809 0l-60.337203 60.338227c-8.330736 8.330736-8.330736 21.837354 0 30.16809l20.507056 20.507056c-8.810666 15.819291-15.678074 32.834826-20.675902 50.625004l-29.293163 0c-11.782348 0-21.332864 9.549493-21.332864 21.332864l0 85.329411c0 11.780301 9.550517 21.332864 21.332864 21.332864l29.733185 0c5.058203 17.556864 12.355399 34.116005 21.134343 49.721425l-21.405519 21.405519c-8.330736 8.330736-8.330736 21.837354 0 30.16809l60.337203 60.338227c8.331759 8.330736 21.837354 8.330736 30.16809 0l21.674649-21.675672c15.536858 8.624425 31.999808 15.798824 49.456389 20.74344l0 30.394241c0 11.780301 9.550517 21.332864 21.332864 21.332864l85.329411 0c11.780301 0 21.332864-9.55154 21.332864-21.332864l0-30.394241c17.46886-4.947685 34.059724-11.9471 49.620118-20.577664l21.509896 21.509896c8.330736 8.330736 21.836331 8.330736 30.169113 0l60.33618-60.338227c8.330736-8.330736 8.330736-21.837354 0-30.16809l-21.171182-21.171182c8.80555-15.603373 15.660678-32.407084 20.75265-49.955762l29.880541 0c11.782348 0 21.332864-9.55154 21.332864-21.332864L788.429797 342.25013z"  horiz-adv-x="1024" />

    
    <glyph glyph-name="iconroundaddfill" unicode="&#59000;" d="M511.99693 853.335295C252.80575 853.335295 42.686195 643.213693 42.686195 384.021489S252.80575-85.292316 511.99693-85.292316c259.198344 0 469.315852 210.121602 469.315852 469.313805S771.196297 853.335295 511.99693 853.335295zM735.99354 416.021298l-0.002047-0.002047c11.782348-0.002047 21.331841-9.55154 21.331841-21.331841l0.001023-21.332864c-0.002047-11.779278-9.552563-21.329794-21.331841-21.331841l-21.332864 0.001023c-0.010233 0.001023-0.01535 0.00307-0.022513 0.004093l-170.642448-0.001023 0.004093-191.996802c-0.002047-11.779278-9.552563-21.329794-21.331841-21.331841l-21.332864 0.001023c-11.781324 0-21.329794 9.549493-21.331841 21.331841l-0.002047-0.002047L480.000192 352.025775l-191.993732-0.004093 0.002047 0.002047c-11.781324 0-21.331841 9.55154-21.331841 21.331841l-0.001023 21.332864c0.002047 11.779278 9.55154 21.328771 21.331841 21.331841l191.993732 0L480.001215 608.014007c0.00307 11.780301 9.552563 21.329794 21.331841 21.331841l21.332864-0.001023c11.781324 0 21.331841-9.55154 21.331841-21.331841l-0.001023-21.330818c0.001023-0.010233-0.002047-0.016373-0.00307-0.024559l0.002047-170.635285L735.99354 416.022321z"  horiz-adv-x="1024" />

    
    <glyph glyph-name="iconroundreducefill" unicode="&#59004;" d="M511.99693 853.334271c-259.19118 0-469.310735-210.116485-469.310735-469.313805 0-259.195274 210.120578-469.310735 469.310735-469.310735 259.198344 0 469.316875 210.116485 469.316875 469.310735C981.313805 643.217786 771.196297 853.334271 511.99693 853.334271zM767.989255 373.355569c0-11.780301-9.550517-21.332864-21.332864-21.332864L277.342586 352.022705c-11.782348 0-21.332864 9.55154-21.332864 21.332864l0 21.332864c0 11.780301 9.550517 21.332864 21.332864 21.332864l469.313805 0c11.782348 0 21.332864-9.55154 21.332864-21.332864L767.989255 373.355569z"  horiz-adv-x="1024" />

    
    <glyph glyph-name="icondingtypefill" unicode="&#59009;" d="M106.683764 768.005884l0-191.991686c0-11.780301 9.55154-21.332864 21.332864-21.332864 11.780301 0 21.332864 9.55154 21.332864 21.332864 0 58.908668 47.753607 106.662275 106.662275 106.662275l213.32455 0 0-554.643216c0-47.125297-38.204114-85.329411-85.329411-85.329411L298.676473 42.703847c-11.780301 0-21.332864-9.55154-21.332864-21.332864s9.55154-21.332864 21.332864-21.332864l426.6491 0c11.780301 0 21.332864 9.55154 21.332864 21.332864s-9.55154 21.332864-21.332864 21.332864l-85.329411 0c-47.125297 0-85.329411 38.204114-85.329411 85.329411L554.666752 682.67545l213.32455 0c58.908668 0 106.662275-47.753607 106.662275-106.662275 0-11.780301 9.55154-21.332864 21.332864-21.332864 11.780301 0 21.332864 9.55154 21.332864 21.332864L917.319306 768.005884 106.683764 768.005884z"  horiz-adv-x="1024" />

    
    <glyph glyph-name="icondingvoicesfill" unicode="&#59010;" d="M512 216.472496c106.037035 0 191.991686 85.957721 191.991686 191.991686L703.991686 685.786301c0 106.037035-85.954651 191.991686-191.991686 191.991686-106.031918 0-191.991686-85.954651-191.991686-191.991686l0-277.32212C320.008314 302.429193 405.968082 216.472496 512 216.472496zM831.986825 440.462966l-21.332864 0c-11.780301 0-21.332864-9.55154-21.332864-21.332864l0-10.665921c0-153.160285-124.158764-277.32212-277.32212-277.32212-153.160285 0-277.32212 124.161834-277.32212 277.32212l0 10.665921c0 11.780301-9.549493 21.332864-21.332864 21.332864l-21.332864 0c-11.780301 0-21.332864-9.55154-21.332864-21.332864l0-21.332864c0-172.146709 135.837758-313.442782 309.320904-329.08811L479.999169-88.403167c0-11.783371 9.55154-21.332864 21.332864-21.332864l21.332864 0c11.783371 0 21.332864 9.549493 21.332864 21.332864L543.997762 68.710151c173.485193 15.645328 309.320904 156.938332 309.320904 329.08811l0 21.332864C853.319689 430.911426 843.770196 440.462966 831.986825 440.462966z"  horiz-adv-x="1024" />

    
    <glyph glyph-name="iconround" unicode="&#58913;" d="M511.99693 853.335295C252.80575 853.335295 42.686195 643.214716 42.686195 384.019443c0-259.192204 210.120578-469.312782 469.310735-469.312782 259.198344 0 469.316875 210.120578 469.316875 469.312782C981.313805 643.214716 771.196297 853.335295 511.99693 853.335295zM511.99693-42.62761c-235.626485 0-426.6491 191.018521-426.6491 426.647053 0 235.635695 191.021591 426.653193 426.6491 426.653193 235.634672 0 426.6491-191.016475 426.6491-426.653193C938.64603 148.390911 747.631602-42.62761 511.99693-42.62761z"  horiz-adv-x="1024" />

    
    <glyph glyph-name="icondingdelete" unicode="&#59006;" d="M554.682102 448.001663l21.331841 0 0-170.667008-21.331841 0 0 170.667008ZM448.01471 448.001663l21.331841 0 0-170.667008-21.331841 0 0 170.667008ZM512.014326 896c-282.771225 0-512-229.230822-512-512S229.244124-128 512.014326-128c282.769178 0 512 229.230822 512 512S794.783505 896 512.014326 896zM512.014326-117.333056c-276.435936 0-501.333056 224.89712-501.333056 501.333056S235.57839 885.333056 512.014326 885.333056s501.333056-224.89712 501.333056-501.333056S788.450263-117.333056 512.014326-117.333056zM725.348086 555.003676c-0.592494 0-1.104147-0.24457-1.671059-0.337691L300.351626 554.665984c-0.566912 0.092098-1.078565 0.337691-1.671059 0.337691-5.892197 0-10.666944-4.77577-10.666944-10.666944 0-5.892197 4.774747-10.666944 10.666944-10.666944l0-0.335644 42.666752 0 0-362.66688c0-23.564695 19.102057-42.666752 42.666752-42.666752l255.999488 0c23.563672 0 42.666752 19.102057 42.666752 42.666752L682.680311 533.334143l42.666752 0 0 0.335644c5.89015 0 10.666944 4.774747 10.666944 10.666944C736.014007 550.227905 731.238236 555.003676 725.348086 555.003676zM661.349493 170.66624c0-11.782348-9.550517-21.332864-21.332864-21.332864L384.013047 149.333376c-11.782348 0-21.332864 9.550517-21.332864 21.332864L362.680183 533.334143l298.66931 0L661.349493 170.66624zM426.549839 618.666624c0.047072 0 0.084934 0.025583 0.132006 0.025583l0-0.024559 170.667008 0 0 0.019443c0.036839 0 0.065492-0.020466 0.101307-0.020466 5.89015 0 10.666944 4.77577 10.666944 10.666944 0 5.89015-4.77577 10.666944-10.666944 10.666944-0.036839 0-0.065492-0.020466-0.101307-0.020466l0 0.020466L426.680822 640.000512l0-0.025583c-0.047072 0-0.084934 0.025583-0.132006 0.025583-5.892197 0-10.666944-4.77577-10.666944-10.666944C415.882895 623.442394 420.657642 618.666624 426.549839 618.666624z"  horiz-adv-x="1025" />

    
    <glyph glyph-name="icondingplayfill" unicode="&#59007;" d="M878.056 323.997l-509.845-339.908c-14.216-9.481-30.652-14.273-47.14-14.273-13.749 0-27.524 3.33-40.091 10.056-27.633 14.787-44.878 43.582-44.878 74.917l0 679.795c0 31.337 17.245 60.132 44.878 74.917 12.561 6.727 26.347 10.056 40.091 10.056 16.488 0 32.918-4.792 47.14-14.273l509.845-339.886c23.639-15.762 37.84-42.295 37.84-70.706s-14.2-54.944-37.84-70.695z"  horiz-adv-x="1024" />

    
    <glyph glyph-name="icondingstopfill" unicode="&#59008;" d="M390.234749 18.723689c0-22.414499-18.173918-40.588417-40.588417-40.588417l-40.588417 0c-22.414499 0-40.588417 18.173918-40.588417 40.588417L268.469498 749.31929c0 22.414499 18.173918 40.588417 40.588417 40.588417l40.588417 0c22.414499 0 40.588417-18.173918 40.588417-40.588417L390.234749 18.723689zM755.532549 18.723689c0-22.414499-18.173918-40.588417-40.588417-40.588417l-40.588417 0c-22.414499 0-40.588417 18.173918-40.588417 40.588417L633.767298 749.31929c0 22.414499 18.173918 40.588417 40.588417 40.588417l40.588417 0c22.414499 0 40.588417-18.173918 40.588417-40.588417L755.532549 18.723689z"  horiz-adv-x="1024" />

    
    <glyph glyph-name="iconroundfill" unicode="&#59011;" d="M512 384.021489m-511.978511 0a500.318 500.318 0 1 0 1023.957021 0 500.318 500.318 0 1 0-1023.957021 0Z"  horiz-adv-x="1024" />

    
    <glyph glyph-name="anonymous-iconfont" unicode="&#59018;" d="M529.944697 537.064095 525.71742 395.438517 656.773268 444.584843 668.928099 410.76355 533.643949 369.015727 623.481024 257.512191 596.001159 235.845729 511.977487 352.633618 427.953815 235.845729 400.473951 257.512191 490.311025 369.015727 355.026876 410.76355 367.181707 444.584843 498.237555 395.438517 494.010277 537.064095Z"  horiz-adv-x="1024" />

    
    <glyph glyph-name="anonymous-iconfont1" unicode="&#59019;" d="M498.237555 571.413414l-14.797008-93.007277 87.722924 0 14.797008 93.007277 26.950815 0-14.267958-93.007277 57.072857 0-4.227278-25.365714-57.072857 0-22.723537-141.625578 64.47136 0-4.227278-24.837688-63.942311 0-14.797008-92.479251L525.71742 194.097906l14.797008 92.479251-87.194898 0-14.797008-92.479251-27.479865 0 14.797008 92.479251-57.600883 0 4.227278 24.837688 57.072857 0 22.723537 141.625578-64.47136 0 4.227278 25.365714 64.47136 0 14.797008 93.007277L498.237555 571.413414zM544.212656 311.414845l22.723537 141.625578-87.194898 0-22.723537-141.625578L544.212656 311.414845z"  horiz-adv-x="1024" />

    
    <glyph glyph-name="0" unicode="&#59020;" d="M613.447507 516.454708c17.96721-33.292244 27.479865-77.682243 27.479865-133.698025 0-55.487755-9.512654-99.877755-27.479865-133.698025-22.194488-41.218774-56.015781-62.35721-101.462856-62.35721s-79.268368 21.138436-101.462856 62.35721c-18.49626 33.821293-27.479865 78.211293-27.479865 133.698025 0 56.015781 8.983605 100.405781 27.479865 133.698025 22.194488 41.747823 56.015781 62.35721 101.462856 62.35721S591.253018 558.202531 613.447507 516.454708zM433.245332 494.259196c-11.625782-27.479865-17.439184-64.999386-17.439184-111.503537s5.813403-83.495646 17.439184-111.503537c15.854083-36.991496 42.275849-56.015781 78.739319-56.015781 35.93442 0 62.35721 19.024286 78.739319 56.015781 11.625782 28.007891 17.96721 64.999386 17.96721 111.503537s-6.341429 84.023672-17.96721 111.503537c-16.382109 37.520545-42.804898 56.015781-78.739319 56.015781C475.522204 550.274978 449.099415 531.779741 433.245332 494.259196z"  horiz-adv-x="1024" />

    
    <glyph glyph-name="1" unicode="&#59021;" d="M554.793642 571.413414l0-377.315508-32.764218 0L522.029424 531.250692c-24.308639-26.422789-54.43068-44.918026-90.3651-55.487755l0 32.764218c17.439184 5.284353 34.877345 13.210883 51.788503 23.780613 16.910135 11.097756 32.235169 24.308639 44.918026 39.105646L554.793642 571.413414z"  horiz-adv-x="1024" />

    
    <glyph glyph-name="2" unicode="&#59022;" d="M600.768743 549.194366c22.195511-19.552312 33.292244-45.447075 33.292244-78.211293s-12.682857-62.35721-37.520545-88.779999c-12.154831-12.682857-38.048571-32.764218-78.211293-60.243059-53.901631-36.46347-83.495646-69.227688-89.308025-98.292654l205.567889 0 0-29.592992L389.387451 194.07437c0 31.707143 12.154831 61.829184 37.520545 89.837074 15.325034 17.439184 41.747823 39.105646 79.267345 64.999386 32.764218 23.251563 53.901631 40.162722 63.942311 50.203402 20.609387 22.195511 31.179117 46.50415 31.179117 72.39789 0 24.837688-7.92653 44.39-23.251563 58.129932s-35.93442 20.609387-61.829184 20.609387c-27.479865 0-49.146327-8.983605-64.999386-27.479865-16.910135-18.49626-25.365714-45.447075-25.365714-80.32442L393.086703 442.447157c0 42.275849 11.625782 75.569116 34.877345 99.877755 22.195511 24.308639 51.788503 36.46347 88.779999 36.46347C550.565341 578.787358 578.573231 569.274704 600.768743 549.194366z"  horiz-adv-x="1024" />

    
    <glyph glyph-name="3" unicode="&#59023;" d="M600.76465 551.332053c21.138436-18.49626 31.707143-43.332924 31.707143-73.982992 0-43.332924-20.609387-71.869864-61.300135-85.609797 21.666462-6.869455 38.576597-17.96721 50.731428-33.292244 12.154831-15.325034 18.49626-33.821293 18.49626-56.015781 0-33.821293-12.154831-61.829184-35.406394-83.495646-23.780613-21.138436-54.43068-32.235169-91.951225-32.235169-33.821293 0-61.829184 8.983605-84.023672 26.422789-27.479865 21.138436-42.275849 53.373605-45.447075 95.649454l32.764218 0c1.585101-32.235169 12.682857-56.544831 33.821293-73.454966 16.910135-13.739932 37.520545-20.609387 62.35721-20.609387 29.064966 0 52.316529 8.455579 70.28374 24.837688 16.910135 16.382109 25.365714 36.991496 25.365714 61.829184 0 23.780613-8.455579 42.275849-24.308639 56.015781s-36.991496 20.081361-63.942311 20.081361l-33.292244 0 0 26.422789 30.122041 0c26.950815 0 47.560202 6.341429 62.35721 18.49626 13.739932 12.682857 21.138436 30.122041 21.138436 53.373605 0 22.195511-7.398504 40.162722-21.666462 53.902654-15.325034 13.739932-36.46347 20.609387-62.886259 20.609387-26.422789 0-47.561225-7.398504-62.886259-22.723537-15.85306-14.797008-25.365714-35.406394-28.53694-62.886259l-32.235169 0c3.170203 35.406394 16.382109 63.414285 39.105646 84.023672 21.666462 20.081361 49.674353 30.122041 84.552721 30.122041S579.098187 569.828312 600.76465 551.332053z"  horiz-adv-x="1024" />

    
    <glyph glyph-name="4" unicode="&#59024;" d="M592.83812 571.413414l0-262.11272 63.942311 0 0-26.950815-63.942311 0 0-88.251973-31.179117 0 0 88.251973L367.18887 282.349879l0 31.179117 194.470133 257.884418L592.83812 571.413414zM396.253836 309.300694l165.405167 0 0 218.250746-1.585101 0L396.253836 309.300694z"  horiz-adv-x="1024" />

    
    <glyph glyph-name="5" unicode="&#59025;" d="M626.130364 571.413414l0-29.592992L439.58676 541.820422l-13.210883-138.983401 1.585101 0c11.097756 13.210883 24.837688 23.251563 41.747823 30.122041 15.325034 6.869455 31.707143 10.04068 49.146327 10.04068 35.93442 0 64.999386-11.097756 87.194898-33.292244 22.723537-23.251563 34.349319-54.958706 34.349319-95.649454 0-36.991496-13.210883-68.170612-38.576597-92.479251-24.837688-23.251563-55.487755-34.877345-92.479251-34.877345-32.764218 0-60.243059 8.983605-82.966597 26.950815-25.89374 19.552312-40.162722 46.50415-42.804898 80.32442l32.235169 0c2.642177-25.365714 13.210883-45.447075 31.707143-59.715033 16.382109-12.682857 36.991496-19.552312 61.829184-19.552312 28.535917 0 52.316529 9.512654 70.812789 28.007891 18.49626 19.024286 28.007891 42.804898 28.007891 71.340815 0 32.235169-8.983605 57.600883-26.422789 75.569116-16.910135 17.439184-40.162722 25.89374-69.227688 25.89374-19.024286 0-36.46347-4.227278-51.788503-12.682857-15.85306-8.983605-28.007891-21.666462-36.46347-37.520545l-30.650067 0 19.024286 206.096938L626.130364 571.414437z"  horiz-adv-x="1024" />

    
    <glyph glyph-name="6" unicode="&#59026;" d="M634.585943 479.462189l-32.235169 0c-8.983605 47.561225-37.520545 71.340815-85.080747 71.340815-32.235169 0-57.600883-15.85306-75.569116-48.089251-17.96721-30.650067-26.422789-69.227688-26.422789-116.78789l0-18.49626 2.114151 0c8.455579 22.195511 22.195511 39.633672 41.219797 52.316529 17.96721 12.682857 39.105646 19.024286 63.414285 19.024286 35.93442 0 64.47136-11.097756 86.137823-34.349319 21.666462-22.723537 32.764218-52.316529 32.764218-89.308025s-11.625782-67.641563-34.877345-91.951225c-23.251563-24.308639-52.845579-36.46347-88.779999-36.46347-45.975101 0-80.32442 17.439184-103.047957 52.316529-20.609387 31.707143-30.650067 76.097142-30.650067 134.227074 0 59.187007 11.097756 107.804285 33.821293 145.32483 24.308639 40.162722 57.600883 60.243059 100.405781 60.243059C584.91159 578.811918 624.017236 546.0477 634.585943 479.462189zM450.15649 383.284709c-18.49626-17.96721-27.479865-41.219797-27.479865-68.698638 0-27.479865 7.92653-50.731428 24.308639-69.755714 17.439184-20.081361 40.690748-30.122041 69.227688-30.122041 27.479865 0 50.203402 9.512654 67.113537 28.53694s25.365714 43.332924 25.365714 71.869864c0 29.064966-8.455579 52.316529-24.837688 69.755714-16.910135 17.96721-39.633672 26.422789-67.113537 26.422789C490.318188 411.2926 468.1237 402.308995 450.15649 383.284709z"  horiz-adv-x="1024" />

    
    <glyph glyph-name="7" unicode="&#59027;" d="M631.15275 571.413414 631.15275 544.462598 488.470097 194.097906 453.591729 194.097906 597.331457 541.291372 387.535267 541.291372 387.535267 571.413414Z"  horiz-adv-x="1024" />

    
    <glyph glyph-name="8" unicode="&#59028;" d="M602.350774 548.689876c19.552312-17.96721 29.592992-40.162722 29.592992-67.641563 0-20.081361-5.284353-37.520545-15.325034-52.316529-10.568706-14.797008-26.422789-25.89374-46.50415-32.235169l0-2.114151c20.609387-4.227278 38.048571-15.325034 52.845579-33.292244 14.797008-17.96721 22.195511-39.633672 22.195511-63.942311 0-32.764218-11.625782-59.187007-33.821293-79.268368-23.251563-20.609387-56.544831-31.179117-99.348706-31.179117-43.332924 0-76.097142 10.568706-99.348706 31.179117-22.723537 20.081361-33.821293 46.50415-33.821293 79.268368 0 24.308639 7.398504 45.975101 22.195511 63.942311 14.267958 17.96721 32.235169 29.064966 53.373605 33.292244l0 2.114151c-20.609387 6.341429-36.46347 17.439184-47.032176 32.235169-10.568706 14.797008-15.325034 32.235169-15.325034 52.316529 0 27.479865 9.512654 49.674353 29.592992 67.641563 21.138436 20.081361 51.259454 30.122041 90.3651 30.122041C550.562271 578.811918 580.684312 568.771237 602.350774 548.689876zM435.887508 356.33287c-16.910135-14.797008-25.365714-34.878368-25.365714-59.187007 0-24.308639 7.92653-44.39 24.837688-59.187007 17.439184-15.85306 42.804898-24.308639 76.625168-24.308639 33.292244 0 59.187007 8.455579 77.154217 24.308639 15.85306 14.797008 24.308639 34.877345 24.308639 59.187007 0 24.308639-8.455579 44.39-25.365714 59.187007-17.96721 16.910135-43.332924 24.837688-76.097142 24.837688S453.855742 373.244029 435.887508 356.33287zM443.815061 529.137565c-13.739932-12.682857-20.609387-29.064966-20.609387-49.146327 0-20.609387 6.341429-37.520545 19.024286-50.203402 15.325034-14.797008 38.576597-22.194488 69.755714-22.194488 30.650067 0 53.901631 7.398504 69.755714 22.194488 12.682857 12.682857 19.024286 29.592992 19.024286 50.203402 0 20.081361-6.869455 36.46347-20.609387 49.146327-16.382109 14.797008-39.105646 22.194488-68.170612 22.194488C482.391658 551.332053 459.668121 543.933549 443.815061 529.137565z"  horiz-adv-x="1024" />

    
    <glyph glyph-name="9" unicode="&#59029;" d="M609.749278 527.023414c20.609387-31.707143 31.179117-76.625168 31.179117-134.7551 0-59.187007-11.625782-107.276259-33.821293-145.32483-24.308639-40.162722-58.129932-60.244083-100.405781-60.244083-67.641563 0-106.219183 33.292244-116.78789 99.348706l32.235169 0c8.455579-47.560202 36.991496-71.340815 85.080747-71.340815 31.707143 0 57.072857 16.382109 75.569116 48.089251 17.439184 30.650067 26.422789 69.755714 26.422789 116.78789l0 18.49626-2.114151 0c-8.983605-21.666462-22.723537-39.105646-41.219797-52.316529-18.49626-12.682857-39.633672-19.024286-63.414285-19.024286-35.93442 0-64.999386 11.625782-86.665849 34.878368-21.666462 22.723537-32.235169 52.316529-32.235169 88.779999 0 36.991496 11.625782 67.641563 34.877345 91.951225 23.251563 24.308639 52.845579 36.46347 88.779999 36.46347C552.676421 578.811918 587.025741 561.900759 609.749278 527.023414zM441.172885 522.267087c-16.910135-19.024286-25.365714-42.804898-25.365714-71.869864 0-28.53694 7.92653-51.788503 24.837688-69.755714 16.910135-17.439184 39.105646-26.422789 67.113537-26.422789 25.89374 0 48.089251 9.511631 66.584488 28.007891 17.96721 18.49626 27.479865 41.219797 27.479865 68.698638s-8.455579 50.731428-24.308639 69.755714c-17.96721 20.081361-40.690748 30.122041-69.227688 30.122041C480.277508 550.804027 458.08302 541.291372 441.172885 522.267087z"  horiz-adv-x="1024" />

    
    <glyph glyph-name="iconstarfriends" unicode="&#59015;" d="M511.998977 896c-282.757922 0-511.974417-229.220588-511.974417-511.978511 0-282.754852 229.217519-511.976464 511.974417-511.976464 282.755876 0 511.976464 229.220588 511.976464 511.976464C1023.975441 666.779412 794.755876 896 511.998977 896zM792.778848 436.242851l-142.998855-113.239064 40.84015-177.246867c2.27174-9.851369-1.797949-20.079314-10.205433-25.660426-4.048199-2.685155-8.69094-4.02057-13.328563-4.02057-4.995781 0-9.984399 1.552356-14.211676 4.632507L512.071631 223.409488 371.269815 120.708432c-4.229325-3.086291-9.216919-4.632507-14.211676-4.632507-4.6366 0-9.280364 1.335415-13.328563 4.02057-8.407484 5.580089-12.477172 15.809057-10.206456 25.660426l40.844244 177.246867-142.999878 113.239064c-8.074909 6.390547-11.224646 17.213034-7.849782 26.960025 3.374864 9.746992 12.533454 16.280802 22.821775 16.280802l176.518273 0 66.595744 178.098257c3.53757 9.457396 12.548804 15.721053 22.61916 15.721053 10.070356 0 19.083637-6.262634 22.621207-15.721053l66.593697-178.098257 176.520319 0c10.288321 0 19.447934-6.53381 22.821775-16.280802C804.003494 453.455885 800.852734 442.633399 792.778848 436.242851z"  horiz-adv-x="1024" />

    
    <glyph glyph-name="iconwarnfill" unicode="&#59030;" d="M512.019443 853.310735c-259.193227 0-469.310735-210.114438-469.310735-469.310735 0-259.193227 210.117508-469.310735 469.310735-469.310735 259.19425 0 469.310735 210.117508 469.310735 469.310735C981.330178 643.196297 771.214716 853.310735 512.019443 853.310735zM512.019443 149.344632c-23.562649 0-42.664705 19.10308-42.664705 42.664705 0 23.566742 19.102057 42.664705 42.664705 42.664705 23.563672 0 42.664705-19.097964 42.664705-42.664705C554.684148 168.447712 535.584138 149.344632 512.019443 149.344632zM533.352307 277.338748l-42.664705 0-21.331841 405.314189 85.329411 0L533.352307 277.338748z"  horiz-adv-x="1024" />

    
    <glyph glyph-name="iconwarn" unicode="&#59031;" d="M512 853.335295C252.804726 853.335295 42.686195 643.21574 42.686195 384.021489c0-259.196297 210.118532-469.313805 469.313805-469.313805 259.196297 0 469.313805 210.117508 469.313805 469.313805C981.313805 643.21574 771.196297 853.335295 512 853.335295zM512-42.62761c-235.630578 0-426.6491 191.016475-426.6491 426.6491S276.369422 810.669566 512 810.669566c235.631602 0 426.6491-191.016475 426.6491-426.6491S747.631602-42.62761 512-42.62761zM512 192.02878m-42.664705 0a41.693 41.693 0 1 0 85.329411 0 41.693 41.693 0 1 0-85.329411 0ZM490.667136 277.359214 533.331841 277.359214 554.664705 682.67545 469.335295 682.67545Z"  horiz-adv-x="1024" />

    
    <glyph glyph-name="iconswmachinefill" unicode="&#59033;" d="M959.977871 767.981325 64.021106 767.981325c-23.563672 0-42.664705-19.097964-42.664705-42.664705l0-682.634262c0-23.561625 19.101033-42.664705 42.664705-42.664705L959.977871 0.017652c23.563672 0 42.664705 19.10308 42.664705 42.664705L1002.642576 725.316619C1002.642576 748.883361 983.542566 767.981325 959.977871 767.981325zM234.679927 149.344632 106.685811 149.344632l0 63.996546 127.994116 0L234.679927 149.344632zM234.679927 256.005884 106.685811 256.005884l0 63.996546 127.994116 0L234.679927 256.005884zM405.338748 149.344632 277.344632 149.344632l0 63.996546 127.994116 0L405.338748 149.344632zM405.338748 256.005884 277.344632 256.005884l0 63.996546 127.994116 0L405.338748 256.005884zM575.996546 149.344632 448.00243 149.344632l0 63.996546 127.994116 0L575.996546 149.344632zM575.996546 256.005884 448.00243 256.005884l0 63.996546 127.994116 0L575.996546 256.005884zM575.996546 469.329411 106.685811 469.329411 106.685811 639.988232l469.310735 0L575.996546 469.329411zM682.658821 64.015222 661.325957 64.015222 661.325957 703.984778l21.331841 0L682.657798 64.015222zM746.655368 128.012791l42.664705 170.658821 106.661252 0 42.664705-170.658821L746.655368 128.012791z"  horiz-adv-x="1024" />

    
    <glyph glyph-name="iconswpowerfill" unicode="&#59034;" d="M853.316619 522.659013l-42.664705 0 0 42.664705c0 164.942633-133.711328 298.651914-298.651914 298.651914s-298.651914-133.709281-298.651914-298.651914l0-42.664705-42.664705 0c-23.563672 0-42.664705-19.097964-42.664705-42.664705l0-533.307282c0-23.561625 19.101033-42.664705 42.664705-42.664705l682.634262 0c23.562649 0 42.665729 19.10308 42.665729 42.664705L895.983371 479.994308C895.983371 503.56105 876.879268 522.659013 853.316619 522.659013zM554.664705 193.18 554.664705 74.681142l-85.329411 0L469.335295 193.18c-25.397437 14.780635-42.664705 41.990347-42.664705 73.491805 0 47.128367 38.204114 85.329411 85.329411 85.329411 47.125297 0 85.329411-38.201044 85.329411-85.329411C597.329411 235.170347 580.062142 207.960635 554.664705 193.18zM725.323527 522.659013 298.676473 522.659013l0 42.664705c0 117.814266 95.508237 213.323527 213.323527 213.323527 117.813243 0 213.323527-95.508237 213.323527-213.323527L725.323527 522.659013z"  horiz-adv-x="1024" />

    
    <glyph glyph-name="iconswrelevancefill" unicode="&#59035;" d="M520.18031 112.906745c0 97.692996 54.56985 185.490621 142.40943 229.134631l3.551896 1.760087 2.676969 2.926656c14.374382 15.655562 32.248472 35.154661 46.550199 58.362222 32.571836 52.91414 28.644387 112.296599 28.519544 113.24418L743.888348 641.620405c0 167.221536-116.442012 226.801493-225.405703 226.801493-109.515253 0-226.530316-59.58098-226.530316-226.801493l0.052189-121.723296c-0.177032-2.51017-4.114714-61.914118 28.644387-114.848725 14.374382-23.217794 32.67519-43.070958 47.38317-59.018162 10.333346-11.208273 24.342408-26.394137 26.331715-32.477692-9.708106-48.976458-103.932094-98.911754-179.886997-139.160433-49.466622-26.217105-92.193749-48.851615-116.566856-71.90261-69.569472-65.830311-63.444984-137.930419-63.143109-140.972709l1.864464-19.269879 545.109072-0.010233-21.051455 32.841989C534.190395 16.431483 520.18031 64.096063 520.18031 112.906745zM776.169565 326.224132c-117.813243 0-213.323527-95.506191-213.323527-213.323527 0-117.812219 95.509261-213.323527 213.323527-213.323527 117.814266 0 213.323527 95.511307 213.323527 213.323527C989.492068 230.717941 893.983831 326.224132 776.169565 326.224132zM797.019429 112.901629l139.641387 0-0.444115-38.528502-181.768857-0.444115 0.165776 38.972617L754.61362 259.547547l42.664705 0L797.019429 112.901629z"  horiz-adv-x="1024" />

    
    <glyph glyph-name="iconsignalfill" unicode="&#59039;" d="M932.35065 53.486424c-64.840774 61.668525-299.246455 137.248897-313.078485 234.520291 0 24.082488 49.15349 57.898665 79.611176 107.364263 30.456662 49.466622 26.331715 105.953124 26.331715 105.953124s0 58.478879 0 127.999233c0 208.839399-199.729927 213.328643-211.885781 213.328643-12.155854 0-213.037001-4.489244-213.037001-213.328643 0-69.520353 0-127.999233 0-127.999233s-4.145413-56.486502 26.478048-105.953124c30.621415-49.466622 80.039941-83.282798 80.039941-107.364263-13.905708-97.271394-249.698992-172.850743-314.89383-234.520291-65.194838-61.673641-47.263443-128.129192-47.263443-128.129192l468.675262-0.008186 466.030016 0.008186C979.358267-74.642768 997.193471-8.18824 932.35065 53.486424z"  horiz-adv-x="1024" />

    
    <glyph glyph-name="guojidianhua" unicode="&#59042;" d="M466.281749 182.661436c0 76.060303 28.237111 145.644101 74.768891 198.798718-14.263865 2.568499-28.332279 2.568499-47.341215 2.568499-36.569894 0-164.561963-54.854329-219.416292-18.284435-54.854329 36.569894-18.284435 73.138764 54.854329 91.423199s73.138764 36.569894 73.138764 109.708658 18.284435 36.569894 109.708658 91.423199c67.329455 40.398082 65.239863 90.713025 59.461253 114.427122 146.71755-38.683021 261.359566-156.373467 295.671023-304.814264 21.590737-7.53972 42.070164-17.469883 61.120033-29.472242C897.248178 665.882995 702.232622 841.145671 466.281749 841.145671c-257.507842 0-466.26026-208.751395-466.26026-466.26026s208.751395-466.26026 466.26026-466.26026c47.928592 0 94.16873 7.231705 137.687896 20.663622C521.155521-16.814712 466.281749 76.629517 466.281749 182.661436zM473.51857-23.256424C271.313266-29.790234 91.557252 116.959038 61.836347 322.005041c-4.556783 31.441083-4.940522 62.497403-2.303462 92.88755 0 0 189.17657-93.861738 212.675774-148.774395 23.500227-54.887075 31.538297-85.917812 53.860698-138.627291 22.322401-52.735062 114.427122-37.436634 133.933385-57.398268C479.483422 50.105421 473.51857-23.256424 473.51857-23.256424zM767.983115 438.881958c-141.15281 0-255.989255-114.950032-255.989255-256.243035 0-141.29198 114.836445-256.242012 255.989255-256.242012 141.178393 0 255.989255 114.950032 255.989255 256.242012C1023.972371 323.931926 909.160485 438.881958 767.983115 438.881958zM890.604874 84.353432c0 0-17.605983-27.054169-50.841945-29.131481-43.653219-2.731204-92.154863 11.634991-137.557936 57.522088-44.890396 45.382607-64.437591 100.550067-62.020542 139.836839 1.678222 27.309996 18.943444 44.905746 26.13217 50.246381s18.936281 12.289907 27.191292 4.736884c9.848299-8.996908 36.272112-48.589648 43.943838-63.638389 3.441379-6.756891-0.576121-17.723663-10.80816-26.712385-10.232039-8.982582-23.657816-18.008142-16.966417-31.883151 3.563152-7.389294 4.735861-13.782911 27.703969-37.124526 20.756743-21.087271 32.872688-26.393113 41.989323-29.266557 13.446243-4.224208 19.660782 8.206916 27.405163 17.922185 7.750521 9.715269 15.245216 14.871709 24.396643 11.180644 9.734712-3.932566 53.03182-34.450626 62.311161-43.290969C900.438846 98.114854 890.604874 84.353432 890.604874 84.353432z"  horiz-adv-x="1024" />

    
    <glyph glyph-name="iconsafefill" unicode="&#59045;" d="M512.002047 853.310735c-212.071 0-383.984395-47.752584-383.984395-106.661252l0-426.64603 0.687662 0c14.124695-225.723951 248.711502-405.314189 383.296733-405.314189 134.579091 0 369.166921 179.590238 383.291616 405.314189l0.687662 0L895.981325 746.64846C895.981325 805.557128 724.06793 853.310735 512.002047 853.310735zM771.555477 549.704996 469.871507 248.018979 288.86706 429.023426c-0.00307 0.00307-0.005117 0.00307-0.008186 0.005117l-15.08251 15.08558c-8.332782 8.330736-8.332782 21.840424 0 30.16809l15.08251 15.08558c8.332782 8.330736 21.837354 8.330736 30.170137 0l150.841473-150.839427 256.4303 256.4303c8.332782 8.327666 21.837354 8.327666 30.170137 0l15.08251-15.08558C779.88826 571.54235 779.88826 558.035732 771.555477 549.704996z"  horiz-adv-x="1024" />

    
    <glyph glyph-name="iconnoprotectfill" unicode="&#58954;" d="M512 426.662659c-35.346019 0-63.99757-28.649504-63.99757-63.99757 0-27.821649 17.863856-51.263547 42.664705-60.080354l0-89.246627 42.664705 0 0 89.246627c24.800849 8.81783 42.664705 32.258705 42.664705 60.080354C575.99757 398.012132 547.346019 426.662659 512 426.662659zM512 895.980557c-282.758945 0-511.977487-229.224682-511.977487-511.982604 0-282.753829 229.219565-511.977487 511.977487-511.977487 282.756899 0 511.977487 229.224682 511.977487 511.977487C1023.978511 666.755876 794.757922 895.980557 512 895.980557zM767.989255 192.006268c0-23.561625-19.101033-42.664705-42.664705-42.664705L298.676473 149.341562c-23.563672 0-42.664705 19.10308-42.664705 42.664705L256.011768 447.9945c0 23.561625 19.101033 42.664705 42.664705 42.664705l21.332864 0 0 42.664705c0 106.037035 85.956697 191.991686 191.991686 191.991686 63.526849 0 119.679753-30.987758 154.62566-78.527494l-55.753815-32.18605c-23.474644 28.52466-59.045791 46.716998-98.871845 46.716998-70.689992 0-127.994116-57.305147-127.994116-127.994116l0-42.664705 251.037477 0 17.151635 0 73.129554 0c23.563672 0 42.664705-19.10308 42.664705-42.664705L767.990279 192.006268z"  horiz-adv-x="1024" />

    
    <glyph glyph-name="iconprotectfill" unicode="&#59050;" d="M512 661.317003c-70.688969 0-127.994116-57.304124-127.994116-127.994116l0-42.664705 255.987209 0 0 42.664705C639.993093 604.012879 582.688969 661.317003 512 661.317003zM512 426.662659c-35.346019 0-63.996546-28.649504-63.996546-63.996546 0-27.821649 17.863856-51.263547 42.664705-60.080354l0-89.245603 42.664705 0 0 89.245603c24.800849 8.816806 42.664705 32.258705 42.664705 60.080354C575.996546 398.012132 547.346019 426.662659 512 426.662659zM512 895.977487c-282.756899 0-511.975441-229.223658-511.975441-511.980557 0-282.751782 229.218542-511.975441 511.975441-511.975441 282.755876 0 511.975441 229.223658 511.975441 511.975441C1023.974417 666.754852 794.755876 895.977487 512 895.977487zM767.987209 192.007291c0-23.561625-19.101033-42.664705-42.664705-42.664705L298.676473 149.342586c-23.563672 0-42.664705 19.10308-42.664705 42.664705L256.011768 447.9945c0 23.561625 19.101033 42.664705 42.664705 42.664705l21.331841 0 0 42.664705c0 106.037035 85.956697 191.990662 191.990662 191.990662s191.990662-85.954651 191.990662-191.990662l0-42.664705 21.331841 0c23.563672 0 42.664705-19.10308 42.664705-42.664705L767.986185 192.007291z"  horiz-adv-x="1024" />

    
    <glyph glyph-name="iconplay1" unicode="&#59057;" d="M512.000512 896c-282.758945 0-511.978511-229.219565-511.978511-511.978511 0-282.757922 229.219565-511.978511 511.978511-511.978511 282.755876 0 511.978511 229.220588 511.978511 511.978511C1023.977999 666.780435 794.756387 896 512.000512 896zM512.001535-95.957213c-265.087471 0-479.981772 214.893278-479.981772 479.978702 0 265.086447 214.894302 479.979726 479.981772 479.979726 265.082354 0 479.976656-214.893278 479.976656-479.979726C991.978191 118.936065 777.083889-95.957213 512.001535-95.957213zM695.946964 416.018228 455.691041 576.184067c-6.701632 4.467755-14.443967 6.726192-22.213931 6.726192-6.476505 0-12.972453-1.568728-18.892279-4.738931-13.021571-6.967692-21.147646-20.536732-21.147646-35.304064l0-320.340889c0-14.766308 8.126075-28.335349 21.147646-35.304064 5.921873-3.170203 12.412704-4.738931 18.892279-4.738931 7.769964 0 15.514345 2.258437 22.213931 6.726192l240.255922 160.175049c11.139711 7.42204 17.831111 19.925818 17.831111 33.314757C713.778074 396.087293 707.086675 408.591071 695.946964 416.018228z"  horiz-adv-x="1024" />

    
    <glyph glyph-name="iconreplay" unicode="&#59058;" d="M1022.678912 383.195681c0 0.049119-0.025583 0.090051-0.025583 0.13917 0 0.229221 0.01535 0.453325 0.01535 0.682545l-0.153496 0c-0.455371 14.474666-12.06171 26.117844-26.501584 26.117844-14.439874 0-26.046213-11.643178-26.501584-26.117844l-0.174985 0c0-252.17744-205.158566-457.345216-457.334983-457.345216S54.646598 131.84098 54.646598 384.017396c0 252.187673 205.179033 457.355449 457.355449 457.355449 177.50781 0 340.477508-105.334024 414.774655-264.800945L817.540811 576.5719c-16.014742 0-28.998451-11.93789-28.998451-26.665313 0-14.727423 12.983709-26.665313 28.998451-26.665313l176.128393 0c0.431835 0 0.836041 0.100284 1.26583 0.11768 0.35918-0.01535 0.703011-0.11768 1.067308-0.11768 6.807033 0 12.94687 2.858094 17.660218 7.419993 0.283456 0.251733 0.567935 0.494257 0.838088 0.7552 0.254803 0.26606 0.49528 0.541329 0.73678 0.818645 4.570085 4.712325 7.429203 10.860349 7.429203 17.671475 0 0.366344-0.101307 0.706081-0.11768 1.067308 0.01842 0.428765 0.11768 0.831948 0.11768 1.26583L1022.666632 728.367095c0 16.015765-11.936867 28.998451-26.665313 28.998451-14.728446 0-26.665313-12.982686-26.665313-28.998451l0-117.443829C883.871519 782.309658 705.712887 894.704494 512.002047 894.704494c-281.592376 0-510.687098-229.094722-510.687098-510.687098s229.094722-510.676865 510.687098-510.676865c281.256732 0 510.095627 228.545206 510.640026 509.675048C1022.642073 383.080048 1022.678912 383.132236 1022.678912 383.195681z"  horiz-adv-x="1024" />

    
    <glyph glyph-name="iconmine" unicode="&#58889;" d="M128.015605 682.653961l767.967766 0c11.782348 0 21.332864 9.550517 21.332864 21.332864s-9.550517 21.332864-21.332864 21.332864L128.015605 725.319689c-11.782348 0-21.332864-9.550517-21.332864-21.332864S116.234281 682.653961 128.015605 682.653961zM895.983371 405.332864 128.015605 405.332864c-11.782348 0-21.332864-9.550517-21.332864-21.332864 0-11.782348 9.550517-21.332864 21.332864-21.332864l767.967766 0c11.782348 0 21.332864 9.550517 21.332864 21.332864C917.316236 395.782348 907.765719 405.332864 895.983371 405.332864zM895.983371 85.346039 128.015605 85.346039c-11.782348 0-21.332864-9.550517-21.332864-21.332864s9.550517-21.332864 21.332864-21.332864l767.967766 0c11.782348 0 21.332864 9.550517 21.332864 21.332864S907.765719 85.346039 895.983371 85.346039z"  horiz-adv-x="1024" />

    
    <glyph glyph-name="iconemptypersonone" unicode="&#59060;" d="M736.298486 236.211049c-4.095271 4.29277-10.738575 4.29277-14.83487 0l-74.179466-77.724199c-4.096295-4.29277-4.096295-11.255345 0-15.544021L751.134379 34.127518c4.095271-4.29277 10.738575-4.29277 14.83487 0l3.446495 3.609201-56.007595 58.683541c-2.047636 2.146896-2.047636 5.626137 0 7.77508l7.419993 7.772011c2.046612 2.146896 5.368264 2.146896 7.4159 0l56.007595-58.683541 11.388375 11.933797-50.760081 53.185316c-2.048659 2.145873-2.048659 5.629207 0 7.776104l7.417947 7.770987c2.048659 2.146896 5.369288 2.146896 7.416923 0l50.761104-53.188386 11.390421 11.936867-45.515636 47.690162c-2.048659 2.146896-2.048659 5.626137 0 7.772011l7.417947 7.772011c2.047636 2.146896 5.369288 2.146896 7.416923 0l45.517683-47.690162 3.445472 3.609201c4.097318 4.29277 4.097318 11.251252 0 15.541975L736.298486 236.211049zM576.300468 334.749296c14.703887 20.497846 42.814108 46.470381 62.441121 80.009242 27.655873 47.248094 23.911596 101.190657 23.911596 101.190657s0 55.857169 0 122.247228c0 199.476147-175.697581 203.759707-192.385659 203.759707-16.687054 0-193.434547-4.28356-193.434547-203.759707 0-66.39006 0-122.247228 0-122.247228s-3.761674-53.942563 24.038486-101.190657c27.806299-47.249117 72.67623-79.542614 72.67623-102.555747-12.622482-92.89983-226.721675-165.088966-285.915845-223.989447-59.19417-58.912761-42.914392-122.385375-42.914392-122.385375s416.632979 0 526.941294 0c-45.688575 47.110971-73.860195 111.305015-73.860195 182.114734C497.797533 221.128539 527.874549 287.259702 576.300468 334.749296zM759.475348 369.800603c-122.528638 0-221.8579-99.329263-221.8579-221.8579s99.329263-221.8579 221.8579-221.8579c122.528638 0 221.8579 99.329263 221.8579 221.8579S882.003985 369.800603 759.475348 369.800603zM901.171534 150.253328l-34.704406-35.525098c0 0-2.814092-5.432733-5.136997-7.807826l-87.158059-89.215928c-8.021697-8.211009-21.029966-8.211009-29.05371 0L628.906593 136.659729c-8.022721 8.212032-8.022721 21.525246 0 29.736255l87.158059 89.218998c8.023744 8.207939 21.032012 8.207939 29.05371 0l27.807323-28.464285 26.559912 27.186176c8.021697 8.213056 21.029966 8.213056 29.051663 0l72.633251-74.347289C909.195278 171.781644 909.195278 158.464337 901.171534 150.253328z"  horiz-adv-x="1024" />

    
    <glyph glyph-name="iconemptypersontwo" unicode="&#59061;" d="M576.300468 334.749296c14.703887 20.497846 42.814108 46.470381 62.441121 80.009242 27.655873 47.248094 23.911596 101.190657 23.911596 101.190657s0 55.857169 0 122.247228c0 199.476147-175.697581 203.759707-192.385659 203.759707-16.687054 0-193.434547-4.28356-193.434547-203.759707 0-66.39006 0-122.247228 0-122.247228s-3.761674-53.942563 24.038486-101.190657c27.805276-47.249117 72.67623-79.542614 72.67623-102.555747-12.622482-92.89983-226.721675-165.088966-285.915845-223.989447-59.19417-58.912761-42.914392-122.385375-42.914392-122.385375s416.634002 0 526.942317 0c-45.688575 47.110971-73.860195 111.305015-73.860195 182.114734C497.797533 221.126492 527.874549 287.259702 576.300468 334.749296zM759.475348 369.800603c-122.528638 0-221.8579-99.329263-221.8579-221.8579s99.329263-221.8579 221.8579-221.8579c122.528638 0 221.8579 99.329263 221.8579 221.8579S882.003985 369.800603 759.475348 369.800603zM850.494341 53.133384c0-10.471492-8.15268-18.962887-18.207687-18.962887l-145.667637 0c-10.05603 0-18.209734 8.491395-18.209734 18.962887l0 32.180933 8.977465 0c4.535293 0 8.209986 3.693112 8.209986 8.243755l0 0.685615c0 4.553713-3.674693 8.243755-8.209986 8.243755l-8.977465 0 0 96.597035 8.977465 0c4.535293 0 8.209986 3.694135 8.209986 8.243755l0 0.687662c0 4.553713-3.674693 8.242731-8.209986 8.242731l-8.977465 0 0 26.496467c0 10.471492 8.15268 18.958794 18.209734 18.958794l145.667637 0c10.055007 0 18.207687-8.487302 18.207687-18.958794L850.494341 53.133384zM790.402731 133.926478c-3.666506 1.478677-6.668886-0.582261-9.773598-4.473895-3.104711-3.89061-5.594415-8.868995-10.981099-7.173376-3.65218 1.146103-8.505721 3.273557-16.818037 11.713786-9.202593 9.347902-9.673313 11.905144-11.099802 14.861476-2.680039 5.556553 2.698458 9.168824 6.797823 12.767791 4.099365 3.593851 5.706979 7.988951 4.327562 10.689457-3.070942 6.02625-13.656021 21.87317-17.602913 25.478278-3.309372 3.02387-8.014534 0.2415-10.894118-1.896186-2.879584-2.13564-9.797134-9.18315-10.469446-20.113083-0.967024-15.728216 6.862291-37.815257 24.847921-55.980989 18.189268-18.370393 37.620829-24.12649 55.107085-23.029506 13.316284 0.828878 20.36891 11.659551 20.36891 11.659551s3.940752 5.508457 1.152243 8.16803C811.646568 120.136404 794.302551 132.352633 790.402731 133.926478z"  horiz-adv-x="1024" />

    
    <glyph glyph-name="iconallappfill" unicode="&#59063;" d="M898.336976 322.338638 578.347081 322.338638c-23.558555 0-42.661635-19.097964-42.661635-42.659589l0-319.984778c0-23.561625 19.10308-42.659589 42.661635-42.659589l319.989895 0c23.561625 0 42.661635 19.097964 42.661635 42.659589L940.998611 279.67905C940.998611 303.240675 921.897577 322.338638 898.336976 322.338638zM407.693376 322.338638 87.706551 322.338638c-23.563672 0-42.664705-19.097964-42.664705-42.659589l0-319.984778c0-23.561625 19.101033-42.659589 42.664705-42.659589l319.986825 0c23.558555 0 42.661635 19.097964 42.661635 42.659589L450.355011 279.67905C450.355011 303.240675 431.251931 322.338638 407.693376 322.338638zM967.775464 637.318426 765.327636 839.767278c-14.905478 14.905478-39.070854 14.910595-53.979402 0l-202.440665-202.438619c-14.915711-14.915711-14.910595-39.081087-0.005117-53.986565l202.448852-202.448852c14.905478-14.905478 39.073924-14.910595 53.986565 0l202.440665 202.443735C982.686059 598.242456 982.684012 622.412948 967.775464 637.318426zM407.693376 812.976098 87.706551 812.976098c-23.563672 0-42.664705-19.092847-42.664705-42.654472l0-319.984778c0-23.566742 19.101033-42.664705 42.664705-42.664705l319.986825 0c23.558555 0 42.661635 19.097964 42.661635 42.664705L450.355011 770.322649C450.355011 793.883251 431.251931 812.976098 407.693376 812.976098z"  horiz-adv-x="1024" />

    
    <glyph glyph-name="iconallapp" unicode="&#59064;" d="M898.336976 322.338638 578.347081 322.338638c-23.558555 0-42.661635-19.097964-42.661635-42.659589l0-319.984778c0-23.561625 19.10308-42.659589 42.661635-42.659589l319.989895 0c23.561625 0 42.661635 19.097964 42.661635 42.659589L940.998611 279.67905C940.998611 303.240675 921.897577 322.338638 898.336976 322.338638zM898.336976-18.972864c0-11.780301-9.55154-21.331841-21.334911-21.331841L599.681992-40.304705c-11.783371 0-21.334911 9.55154-21.334911 21.331841L578.347081 258.336976c0 11.791557 9.55154 21.343097 21.334911 21.343097l277.320073 0c11.783371 0 21.334911-9.55154 21.334911-21.343097L898.336976-18.972864zM407.693376 322.338638 87.706551 322.338638c-23.563672 0-42.664705-19.097964-42.664705-42.659589l0-319.984778c0-23.561625 19.101033-42.659589 42.664705-42.659589l319.986825 0c23.558555 0 42.661635 19.097964 42.661635 42.659589L450.355011 279.67905C450.355011 303.240675 431.251931 322.338638 407.693376 322.338638zM407.693376-18.972864c0-11.780301-9.55154-21.331841-21.334911-21.331841L109.038392-40.304705c-11.782348 0-21.331841 9.55154-21.331841 21.331841L87.706551 258.336976c0 11.791557 9.550517 21.343097 21.331841 21.343097l277.320073 0c11.783371 0 21.334911-9.55154 21.334911-21.343097L407.693376-18.972864zM967.775464 637.318426 765.327636 839.767278c-14.905478 14.905478-39.070854 14.910595-53.979402 0l-202.440665-202.438619c-14.915711-14.915711-14.910595-39.081087-0.005117-53.986565l202.448852-202.448852c14.905478-14.905478 39.073924-14.910595 53.986565 0l202.440665 202.443735C982.686059 598.242456 982.684012 622.412948 967.775464 637.318426zM921.356248 597.247802 751.413741 427.307342c-7.218402-7.218402-18.924002-7.218402-26.142403 0.005117L555.321668 597.258035c-7.218402 7.223518-7.223518 18.926048-0.005117 26.14445L725.261105 793.347039c7.223518 7.223518 18.931165 7.223518 26.152637 0.005117l169.947624-169.94967C928.582837 616.184083 928.582837 604.476437 921.356248 597.247802zM407.693376 812.976098 87.706551 812.976098c-23.563672 0-42.664705-19.092847-42.664705-42.654472l0-319.984778c0-23.566742 19.101033-42.664705 42.664705-42.664705l319.986825 0c23.558555 0 42.661635 19.097964 42.661635 42.664705L450.355011 770.322649C450.355011 793.883251 431.251931 812.976098 407.693376 812.976098zM407.693376 471.664595c0-11.780301-9.55154-21.326724-21.334911-21.326724L109.038392 450.337871c-11.782348 0-21.331841 9.546424-21.331841 21.326724L87.706551 748.979552c0 11.791557 9.550517 21.343097 21.331841 21.343097l277.320073 0c11.783371 0 21.334911-9.55154 21.334911-21.343097L407.693376 471.664595z"  horiz-adv-x="1024" />

    
    <glyph glyph-name="iconpersoncard" unicode="&#59062;" d="M32.023344 362.673276l127.994116 0c11.780301 0 21.331841 9.55154 21.331841 21.331841 0 11.780301-9.55154 21.331841-21.331841 21.331841L32.023344 405.336958c-11.780301 0-21.331841-9.55154-21.331841-21.331841C10.69048 372.224816 20.24202 362.673276 32.023344 362.673276zM117.352755 192.014454 117.352755 341.340411l-42.661635 0 0-149.325957L117.352755 192.014454zM32.023344 618.660484l127.994116 0c11.780301 0 21.331841 9.55154 21.331841 21.331841s-9.55154 21.331841-21.331841 21.331841L32.023344 661.324166c-11.780301 0-21.331841-9.55154-21.331841-21.331841S20.24202 618.660484 32.023344 618.660484zM117.352755 426.669822 117.352755 597.328643l-42.661635 0 0-170.658821L117.352755 426.669822zM927.982156 810.651147 160.01439 810.651147c-47.125297 0-85.324294-38.211277-85.324294-85.334527l0-42.659589 42.661635 0 0 42.664705c0 23.561625 19.101033 42.664705 42.664705 42.664705l767.962649 0c23.563672 0 42.664705-19.10308 42.664705-42.664705l0-682.634262c0-23.561625-19.101033-42.664705-42.664705-42.664705L160.016437 0.022769c-23.563672 0-42.664705 19.10308-42.664705 42.664705l0 63.996546-42.661635 0 0-64.001663c0-47.122227 38.198997-85.334527 85.324294-85.334527l767.968789 0c47.125297 0 85.326341 38.211277 85.326341 85.334527L1013.30952 725.316619C1013.30952 772.43987 975.107453 810.651147 927.982156 810.651147zM181.349301 149.349749c0 11.780301-9.55154 21.331841-21.331841 21.331841L32.023344 170.68159c-11.780301 0-21.331841-9.55154-21.331841-21.331841s9.55154-21.331841 21.331841-21.331841l127.994116 0C171.797761 128.017908 181.349301 137.569448 181.349301 149.349749zM312.709071 184.160579c-38.497802-37.300534-27.909653-77.475536-27.909653-77.475536l276.750091-0.005117 275.184433 0.005117c0 0 10.530844 40.175001-27.756157 77.475536-38.290071 37.284161-176.699398 82.9799-184.871521 141.800563 0 14.561647 29.025057 35.003212 47.00864 64.918545 17.9887 29.9051 15.551184 64.058968 15.551184 64.058968s0 35.362392 0 77.397764c0 126.274962-125.116579 128.98877-125.116579 128.98877s-125.799124-2.713808-125.799124-128.98877c0-42.034349 0-77.397764 0-77.397764s-2.445702-34.154891 15.635095-64.058968c18.082844-29.915333 47.263443-50.356898 47.263443-64.918545C490.439962 267.141502 351.201757 221.445764 312.709071 184.160579z"  horiz-adv-x="1024" />

    
    <glyph glyph-name="iconnextarrow" unicode="&#59069;" d="M775.97616 414.191626 338.530157 851.63456c-16.662495 16.663518-43.675732 16.663518-60.33618 0l-30.170137-30.16809c-16.660448-16.660448-16.660448-43.675732 0-60.33618l377.1088-377.1088-377.1088-377.1088c-16.660448-16.660448-16.660448-43.672662 0-60.33618l30.170137-30.16809c16.660448-16.663518 43.673685-16.663518 60.33618 0l437.44498 437.44498C792.636608 370.513848 792.636608 397.531178 775.97616 414.191626z"  horiz-adv-x="1024" />

    
    <glyph glyph-name="iconfunction" unicode="&#59070;" d="M789.31905 757.339964c82.340333 0 149.32698-66.98767 149.32698-149.32698s-66.986647-149.32698-149.32698-149.32698L234.675834 458.686003c-82.340333 0-149.32698 66.98767-149.32698 149.32698s66.986647 149.32698 149.32698 149.32698L789.31905 757.339964M767.986185 501.350708c58.812477 0 106.662275 47.848775 106.662275 106.662275s-47.849798 106.662275-106.662275 106.662275c-58.812477 0-106.662275-47.847751-106.662275-106.662275S709.173708 501.350708 767.986185 501.350708M789.31905 309.359023c82.340333 0 149.32698-66.98767 149.32698-149.32698s-66.986647-149.32698-149.32698-149.32698L234.675834 10.705062c-82.340333 0-149.32698 66.98767-149.32698 149.32698s66.986647 149.32698 149.32698 149.32698L789.31905 309.359023M256.007675 53.369767c58.812477 0 106.662275 47.847751 106.662275 106.662275 0 58.8135-47.849798 106.662275-106.662275 106.662275S149.3454 218.845543 149.3454 160.032042C149.3454 101.217519 197.195198 53.369767 256.007675 53.369767M789.31905 800.004669 234.675834 800.004669c-106.034988 0-191.991686-85.957721-191.991686-191.991686 0-106.036012 85.957721-191.991686 191.991686-191.991686l554.643216 0c106.034988 0 191.991686 85.955674 191.991686 191.991686C981.310735 714.047971 895.354038 800.004669 789.31905 800.004669L789.31905 800.004669zM767.986185 544.015414c-35.344996 0-63.99757 28.65155-63.99757 63.99757 0 35.344996 28.652574 63.99757 63.99757 63.99757 35.347043 0 63.99757-28.652574 63.99757-63.99757C831.983755 572.666964 803.334251 544.015414 767.986185 544.015414L767.986185 544.015414zM789.31905 352.023728 234.675834 352.023728c-106.034988 0-191.991686-85.957721-191.991686-191.991686 0-106.036012 85.957721-191.991686 191.991686-191.991686l554.643216 0c106.034988 0 191.991686 85.955674 191.991686 191.991686C981.310735 266.066007 895.354038 352.023728 789.31905 352.023728L789.31905 352.023728zM256.007675 96.034473c-35.344996 0-63.99757 28.65155-63.99757 63.99757 0 35.344996 28.652574 63.99757 63.99757 63.99757 35.347043 0 63.99757-28.652574 63.99757-63.99757C320.005244 124.686023 291.355741 96.034473 256.007675 96.034473L256.007675 96.034473z"  horiz-adv-x="1024" />

    
    </font>
</defs>
</svg>
